<svg version="1.1" viewBox="0.0 0.0 565.3805774278215 324.31496062992125" fill="none" stroke="none" stroke-linecap="square" stroke-miterlimit="10" xmlns:xlink="http://www.w3.org/1999/xlink" xmlns="http://www.w3.org/2000/svg"><clipPath id="p.0"><path d="m0 0l565.38055 0l0 324.31497l-565.38055 0l0 -324.31497z" clip-rule="nonzero"/></clipPath><g clip-path="url(#p.0)"><path fill="#000000" fill-opacity="0.0" d="m0 0l565.38055 0l0 324.31497l-565.38055 0z" fill-rule="evenodd"/><path fill="#000000" fill-opacity="0.0" d="m25.9342 168.27551l92.85039 129.5433" fill-rule="evenodd"/><path stroke="#a4c2f4" stroke-width="3.0" stroke-linejoin="round" stroke-linecap="butt" d="m25.9342 168.27551l92.85039 129.5433" fill-rule="evenodd"/><path fill="#000000" fill-opacity="0.0" d="m118.78459 297.81882l230.42519 -66.3307" fill-rule="evenodd"/><path stroke="#a4c2f4" stroke-width="3.0" stroke-linejoin="round" stroke-linecap="butt" d="m118.78459 297.81882l230.42519 -66.3307" fill-rule="evenodd"/><path fill="#000000" fill-opacity="0.0" d="m27.270342 169.61417l304.6299 -32.59842" fill-rule="evenodd"/><path stroke="#a4c2f4" stroke-width="3.0" stroke-linejoin="round" stroke-linecap="butt" d="m27.270342 169.61417l304.6299 -32.59842" fill-rule="evenodd"/><path fill="#000000" fill-opacity="0.0" d="m331.90552 137.01575l13.480316 77.5748" fill-rule="evenodd"/><path stroke="#a4c2f4" stroke-width="3.0" stroke-linejoin="round" stroke-linecap="butt" d="m331.90552 137.01575l13.480316 77.5748" fill-rule="evenodd"/><path fill="#000000" fill-opacity="0.0" d="m331.91077 138.3517l83.1496 -68.50393" fill-rule="evenodd"/><path stroke="#a4c2f4" stroke-width="3.0" stroke-linejoin="round" stroke-linecap="butt" d="m331.91077 138.3517l83.1496 -68.50393" fill-rule="evenodd"/><path fill="#000000" fill-opacity="0.0" d="m415.0551 70.50656l16.629913 -14.929134" fill-rule="evenodd"/><path stroke="#a4c2f4" stroke-width="3.0" stroke-linejoin="round" stroke-linecap="butt" d="m415.0551 70.50656l16.629913 -14.929134" fill-rule="evenodd"/><path fill="#000000" fill-opacity="0.0" d="m431.68503 58.380577l81.13388 9.322838" fill-rule="evenodd"/><path stroke="#a4c2f4" stroke-width="3.0" stroke-linejoin="round" stroke-linecap="butt" d="m431.68503 58.380577l81.13388 9.322838" fill-rule="evenodd"/><path fill="#a4c2f4" d="m6.632583 161.53543l13.40193 7.6293945E-5l4.1413403 -12.018448l4.1413383 12.018448l13.401932 -7.6293945E-5l-10.842443 7.427719l4.141508 12.018402l-10.842335 -7.4278717l-10.842338 7.4278717l4.141509 -12.018402z" fill-rule="evenodd"/><path stroke="#000000" stroke-width="2.0" stroke-linejoin="round" stroke-linecap="butt" d="m6.632583 161.53543l13.40193 7.6293945E-5l4.1413403 -12.018448l4.1413383 12.018448l13.401932 -7.6293945E-5l-10.842443 7.427719l4.141508 12.018402l-10.842335 -7.4278717l-10.842338 7.4278717l4.141509 -12.018402z" fill-rule="evenodd"/><path fill="#a4c2f4" d="m90.39899 278.37268l13.401932 9.1552734E-5l4.141342 -12.018433l4.1413345 12.018433l13.401932 -9.1552734E-5l-10.842445 7.4277344l4.14151 12.018402l-10.842331 -7.4278564l-10.842339 7.4278564l4.14151 -12.018402z" fill-rule="evenodd"/><path stroke="#000000" stroke-width="2.0" stroke-linejoin="round" stroke-linecap="butt" d="m90.39899 278.37268l13.401932 9.1552734E-5l4.141342 -12.018433l4.1413345 12.018433l13.401932 -9.1552734E-5l-10.842445 7.4277344l4.14151 12.018402l-10.842331 -7.4278564l-10.842339 7.4278564l4.14151 -12.018402z" fill-rule="evenodd"/><path fill="#a4c2f4" d="m327.84256 226.60892l13.4019165 7.6293945E-5l4.1413574 -12.018448l4.141327 12.018448l13.401947 -7.6293945E-5l-10.842468 7.427719l4.14151 12.018402l-10.842316 -7.4278564l-10.842346 7.4278564l4.14151 -12.018402z" fill-rule="evenodd"/><path stroke="#000000" stroke-width="2.0" stroke-linejoin="round" stroke-linecap="butt" d="m327.84256 226.60892l13.4019165 7.6293945E-5l4.1413574 -12.018448l4.141327 12.018448l13.401947 -7.6293945E-5l-10.842468 7.427719l4.14151 12.018402l-10.842316 -7.4278564l-10.842346 7.4278564l4.14151 -12.018402z" fill-rule="evenodd"/><path fill="#a4c2f4" d="m314.80057 130.07086l13.4019165 7.6293945E-5l4.1413574 -12.018448l4.141327 12.018448l13.401947 -7.6293945E-5l-10.842468 7.427719l4.14151 12.018402l-10.842316 -7.4278717l-10.842346 7.4278717l4.14151 -12.018402z" fill-rule="evenodd"/><path stroke="#000000" stroke-width="2.0" stroke-linejoin="round" stroke-linecap="butt" d="m314.80057 130.07086l13.4019165 7.6293945E-5l4.1413574 -12.018448l4.141327 12.018448l13.401947 -7.6293945E-5l-10.842468 7.427719l4.14151 12.018402l-10.842316 -7.4278717l-10.842346 7.4278717l4.14151 -12.018402z" fill-rule="evenodd"/><path fill="#a4c2f4" d="m362.92917 89.48556l13.401947 8.392334E-5l4.141327 -12.018448l4.141327 12.018448l13.401947 -8.392334E-5l-10.842438 7.4277267l4.14151 12.018394l-10.842346 -7.427864l-10.842346 7.427864l4.14151 -12.018394z" fill-rule="evenodd"/><path stroke="#000000" stroke-width="2.0" stroke-linejoin="round" stroke-linecap="butt" d="m362.92917 89.48556l13.401947 8.392334E-5l4.141327 -12.018448l4.141327 12.018448l13.401947 -8.392334E-5l-10.842438 7.4277267l4.14151 12.018394l-10.842346 -7.427864l-10.842346 7.427864l4.14151 -12.018394z" fill-rule="evenodd"/><path fill="#a4c2f4" d="m415.05515 52.56692l13.401947 8.392334E-5l4.141327 -12.018448l4.1413574 12.018448l13.4019165 -8.392334E-5l-10.842438 7.4277267l4.14151 12.018398l-10.842346 -7.427864l-10.842346 7.427864l4.14151 -12.018398z" fill-rule="evenodd"/><path stroke="#000000" stroke-width="2.0" stroke-linejoin="round" stroke-linecap="butt" d="m415.05515 52.56692l13.401947 8.392334E-5l4.141327 -12.018448l4.1413574 12.018448l13.4019165 -8.392334E-5l-10.842438 7.4277267l4.14151 12.018398l-10.842346 -7.427864l-10.842346 7.427864l4.14151 -12.018398z" fill-rule="evenodd"/><path fill="#a4c2f4" d="m495.23364 59.328075l13.4019165 8.392334E-5l4.1413574 -12.018448l4.1412964 12.018448l13.401978 -8.392334E-5l-10.842468 7.427723l4.1415405 12.018402l-10.842346 -7.427864l-10.842346 7.427864l4.14151 -12.018402z" fill-rule="evenodd"/><path stroke="#000000" stroke-width="2.0" stroke-linejoin="round" stroke-linecap="butt" d="m495.23364 59.328075l13.4019165 8.392334E-5l4.1413574 -12.018448l4.1412964 12.018448l13.401978 -8.392334E-5l-10.842468 7.427723l4.1415405 12.018402l-10.842346 -7.427864l-10.842346 7.427864l4.14151 -12.018402z" fill-rule="evenodd"/><path fill="#000000" fill-opacity="0.0" d="m43.034107 33.66013l283.49606 -0.031497955l0 264.15747l-283.49606 0.03149414z" fill-rule="evenodd"/><path fill="#000000" d="m99.62785 70.001335q0 0.9375 -0.234375 1.4062805q-0.234375 0.4687729 -0.484375 1.7344284q-2.296875 0.92212677 -3.34375 0.9222412q-4.0625 4.5776367E-4 -4.0625 -4.062042q0 -1.3125 0.453125 -1.8438034q0.46875 -0.5313034 1.0 -1.8438644l3.296875 -0.21911621l2.859375 1.7340622q0.515625 1.562439 0.515625 2.171814zm5.625 5.8118744q0 2.03125 -0.953125 1.4219818q-0.953125 -0.6248932 1.109375 0.09362793q-1.796875 1.7970734 -2.296875 1.9221344q-0.484375 0.109428406 -0.84375 -0.23428345q-0.28125 0.6719055 -1.34375 -0.46860504q0.0625 -0.125 0.375 0.42183685q0.328125 0.54683685 -1.640625 1.5314331q-1.203125 -1.5936203 -0.96875 -1.9686432q0.25 -0.37503052 -1.75 0.50019073l0 -6.34375q2.0 0.49977875 2.15625 -0.12523651q0.15625 -0.62501526 2.0 -0.62522125q1.515625 -1.6784668E-4 2.4375 0.84347534q0.921875 0.8280258 1.71875 2.2185593l0 0.8125zm-12.28125 -10.686134q0 1.078125 -0.46875 1.9375534q-0.46875 0.8594284 -1.453125 1.8439102q-1.515625 0.37516785 -1.953125 0.37522125q-1.0 1.0681152E-4 -1.6875 -0.3123169q-0.6875 -0.3124237 -2.375 -0.984108q0 -1.40625 -0.09375 -1.6874924q-0.09375 -0.28123474 -0.09375 -0.98435974q0 -1.6406288 1.453125 -2.750164q1.46875 -1.125164 2.703125 -1.1253014q1.265625 -1.411438E-4 1.890625 0.4997902q0.625 0.49993134 2.078125 1.0778923l0 2.109375zm-7.28125 -0.9054413q-2.453125 1.9690247 -2.921875 2.265953q-0.46875 0.2969284 -1.515625 1.3439178l-4.578125 -0.76511383l-1.15625 -4.827999q1.640625 -1.3751831 2.5 -1.8752785q0.875 -0.51572037 2.171875 -0.5158653q0.609375 -6.866455E-5 1.921875 0.43728638q1.109375 1.1092491 1.328125 1.6717262q0.21875 0.5624771 2.25 2.2653732zm-10.8125 1.4699554q0 0.75 -0.625 2.0000687q-1.25 0.8907623 -1.71875 1.0783157q-0.46875 0.1875534 -1.59375 0.32830048q-0.125 -1.3281097 -0.1875 -0.5156021q-0.046875 0.796875 -0.875 0.7969742l-2.5625 2.822876E-4q0.03125 -2.2031326 0.03125 -2.1718826q0 0.015625 -1.0625 -1.5780029q1.25 -2.0001411 2.171875 -3.0002441q0.921875 -1.0000992 2.734375 -1.0003014q0.9375 -1.02996826E-4 1.84375 0.452919q0.71875 0.7186699 1.28125 1.5311089q0.5625 0.79681396 0.5625 2.078064zm25.40625 37.215927q0 1.875 -0.984375 2.4844818q-0.984375 0.5938568 -2.203125 1.8127441q-1.859375 -0.702919 -2.90625 -0.96842194q-1.03125 -0.28113556 -2.21875 -2.1872559l0 -1.421875q0 -0.796875 0.484375 -2.2500534l2.109375 -1.6252365l2.5625 -0.3909073l2.359375 1.780983q-0.796875 1.2969666 0.796875 0.8749161l0 1.890625zm-31.921875 -29.949577q-3.625 1.4535217 -4.1875 1.5160904q-0.5624962 0.046936035 -2.2187462 0.37524414q-1.375 -0.9217224 -2.234375 -1.6872559q-0.84375 -0.7655258 -0.84375 -2.3124008q0 -1.578125 0.984375 -2.5626144q1.0 -1.0001068 3.25 -1.9691086l0.359375 2.7812119q-0.34375 -1.7499619 0.5 -1.7500534q2.7031212 -3.0517578E-4 2.8124962 1.6246872q0.125 1.6093597 0.125 2.1562347q-0.59375 0.093811035 1.453125 1.8279648zm37.546875 39.13645q0 0.9375 -0.453125 1.8437958q-0.34375 0.34378815 -0.65625 0.7032013q-0.296875 0.35940552 -1.3125 1.04702q-0.609375 -0.109306335 -0.84375 9.1552734E-5q-0.21875 0.09378052 -0.609375 0.093818665q-0.84375 9.918213E-5 -1.640625 -0.4060669q-0.125 -0.06248474 -1.28125 -0.53110504q-1.140625 -0.48425293 -0.734375 -1.8124161q-0.6875 -0.4686737 -0.6875 -1.1249237q0 -1.390625 0.765625 -1.5313416q0.765625 -0.15633392 -0.109375 -1.5156097q1.984375 -0.78147125 2.3125 -0.8127594q0.34375 -0.046913147 1.5625 -0.78141785q1.859375 1.327919 2.765625 2.2496872q0.921875 0.9061508 0.921875 2.5780258zm-15.84375 -14.154488q0 0.625 -0.09375 1.0000076q-0.09375 0.37500763 -0.09375 1.8593826q-1.515625 0.59391785 -2.15625 1.0471191q-0.625 0.43756866 -1.71875 0.43769073q-0.9375 9.918213E-5 -1.578125 -0.31232452q-0.640625 -0.32805634 -3.21875 -1.3590164l2.78125 -1.4065628q-1.359375 1.0001526 -1.703125 0.42206573q-0.34375 -0.57808685 -0.34375 -1.4062119q0 -0.65625 0.125 -1.0937653q0.125 -0.45314026 0.390625 -1.5156708q2.078125 -1.4533539 3.640625 -1.4535294q1.171875 -1.296997E-4 2.75 1.0621948q-0.5 0.87506104 0.359375 0.81246185q0.859375 -0.06259155 0.859375 1.9061584zm-10.125 -2.7801285q-0.390625 2.2031708 -1.59375 3.7970505q-1.640625 0.6095581 -2.65625 0.60967255q-0.953125 1.0681152E-4 -2.890625 -0.78092957q-0.984375 -1.7186432 -0.984375 -2.9998932q0 -1.84375 1.296875 -3.406395q0.828125 -0.26571655 1.25 -0.40638733q0.4375 -0.15629578 1.046875 -0.15636444l1.078125 -1.2207031E-4q0.984375 0.6561432 1.53125 0.74983215q0.5625 0.093688965 1.921875 2.5935364zm-14.703125 -15.482742q-0.390625 1.5469208 -0.390625 1.9531708q0 1.796875 -1.2968712 2.70327q-1.296875 0.89076996 -2.578125 0.8909073q-1.671875 1.9073486E-4 -2.875 -1.1871796q-1.1875 -1.2029953 -1.1875 -2.8748703q0 -2.140625 0.796875 -2.500084q0.8125 -0.35946655 1.671875 -1.3908157q2.328125 0.26537323 3.078125 0.7027893q0.765625 0.43740845 2.7812462 1.7028122zm38.875 43.011307q-0.21875 1.1093979 -0.34375 1.5312881q-0.109375 0.42189026 -0.109375 2.6250153q-2.109375 2.2888184E-4 -2.484375 0.14089966q-0.375 0.14066315 -1.203125 0.1407547q-0.796875 9.1552734E-5 -1.03125 -1.4530106q0.28125 0.26559448 -1.640625 2.125183q-0.828125 -2.8905334 -2.484375 -3.9216003l2.796875 -5.35968q1.421875 2.0623398 1.421875 0.8592148q0 1.546875 -0.4375 0.8750458q-0.421875 -0.6718216 1.1875 -2.2657547q1.65625 1.6560669 0.6875 2.9842987q-0.3125 -1.6874619 1.5 -1.6876678q1.0 1.2655182 1.3125 1.718605q0.328125 0.43746185 0.828125 1.6874084zm-34.578125 -31.402405q0 1.734375 -0.984375 2.6251068q-0.984375 0.8907318 -2.8125 1.5784378q-2.3124962 -0.8903656 -3.3124962 -1.8902588q-0.734375 -1.4686661 -0.734375 -2.406166q0 -0.9375 0.234375 -1.4062805q0.234375 -0.4687729 0.234375 -2.468773q2.3906212 -2.670288E-4 2.6093712 0.10908508q0.234375 0.09372711 0.234375 -0.015647888q0.109375 -1.5258789E-5 0.390625 -0.046920776q0.28125 -0.046905518 1.1875 -0.0470047q1.15625 0.6873703 1.25 0.78110504q0.09375 0.09374237 1.703125 0.5466919l0 2.640625zm26.625 38.90329q0 2.015625 -1.125 2.875122q-1.109375 0.8594971 -2.671875 1.4534302q-1.34375 -0.28111267 -1.671875 -0.4685669q-0.328125 -0.18746948 -1.359375 -0.3904724q-0.6875 -1.1561737 -0.96875 -1.5467682q-0.28125 -0.39059448 -0.859375 -1.8280334q0.546875 -1.375061 0.78125 -1.7500916q0.234375 -0.37501526 0.6875 -1.4688187q1.28125 -0.51576996 1.828125 -0.718956q0.5625 -0.21881104 1.390625 -0.21890259q0.609375 -6.866455E-5 2.03125 0.48414612q0.6875 0.8436737 1.3125 1.4685974q0.625 0.62493896 0.625 2.109314zm-11.34375 2.6262665q0 1.53125 -1.125 2.750122q-1.125 1.2188721 -2.75 1.2190552q-0.765625 7.6293945E-5 -1.234375 -0.14048767q-0.46875 -0.14057922 -2.0 -0.14041138q-0.71875 -1.8124084 -0.921875 -2.4530182q-0.1875 -0.65623474 -0.1875 -1.4218597l0 -2.0q1.984375 -1.1408386 2.5625 -1.2190247q0.578125 -0.093811035 1.953125 -1.0158539l3.21875 2.452774q0.484375 1.4530792 0.484375 1.9687042zm-10.375 -2.0301056q-1.5625 4.312668 -4.75 4.313034l-1.078125 1.2207031E-4q-1.546875 -1.0310822 -1.78125 -1.5466919q-0.21875 -0.5155945 -1.296875 -1.5935974q0.5625 -1.718811 0.5625 -2.875061q1.828125 -1.828331 3.3125 -1.8284988q0.6875 -7.6293945E-5 1.109375 0.09362793q0.421875 0.09370422 1.765625 0.093559265l2.15625 3.3435059zm-9.6875 -2.4364166q-1.2499962 1.0001373 -2.0468712 1.5783539q-0.796875 0.5782013 -2.109375 0.5783539q-0.609375 6.1035156E-5 -0.828125 -0.51553345q-0.203125 -0.51560974 -0.96875 0.3282318q-2.078125 -1.8591461 -1.875 -2.2966614q0.21875 -0.45315552 -1.390625 -1.468605q1.671875 -1.9689331 2.34375 -3.0158844q0.6875 -1.0625763 2.8125 -1.0628128q1.1875 -1.296997E-4 1.8125 0.45292664q0.640625 0.43743134 1.9062462 0.9372864q0.34375 1.7187119 0.34375 2.3437119q0 0.609375 0 2.1406326zm106.96875 -63.511894q0 0.609375 -0.453125 1.9688034l-2.0 1.8127213l-1.328125 1.5258789E-4q-0.515625 5.340576E-5 -0.84375 -0.046783447q-0.328125 -0.046836853 -1.78125 -0.046676636q-0.90625 -1.4999008 -1.265625 -2.2186127q-0.359375 -0.71871185 -0.359375 -2.328083q1.828125 -2.9220772 4.0625 -2.9223251q0.453125 -5.340576E-5 0.734375 0.046791077q0.28125 0.046844482 1.125 0.046749115q1.09375 1.0936317 1.59375 1.8591995q0.515625 0.7499428 0.515625 1.828064zm-9.09375 0.0010147095q0 1.171875 -0.4375 1.8281708q-0.4375 0.6406784 -1.28125 2.04702q-1.453125 1.6021729E-4 -1.78125 0.047073364q-0.328125 0.046913147 -0.84375 0.046966553q-0.703125 7.6293945E-5 -2.0625 -0.45289612l-2.765625 -3.0153198q2.796875 -0.37530518 1.921875 -0.20333862q-0.875 0.17197418 -0.875 -0.7655258q0 -0.75 0.453125 -1.6562996l1.75 -1.7501945q1.390625 -1.5258789E-4 1.984375 -2.1743774E-4q0.609375 -6.866455E-5 2.328125 0.2809906q0.578125 1.1561852 0.71875 1.3592949q0.140625 0.18748474 0.890625 0.9374008l0 1.296875zm-8.921875 -0.8427582q-0.265625 2.8281555 -1.53125 3.8282928q-1.265625 0.98451996 -2.984375 0.9847107q-0.4375 4.5776367E-5 -1.953125 -0.37478638q-0.546875 -0.54681396 -1.6875 -1.8904343q-1.140625 -1.3436279 0.34375 -2.843792q1.21875 1.2029915 -0.484375 1.0469322q0 -1.4843788 1.1875 -2.6720085q1.203125 -1.2032585 2.6875 -1.2034264q1.078125 -1.18255615E-4 1.4375 0.2498436q0.375 0.23433304 1.203125 0.4061165q0.90625 1.218647 0.9375 1.5780182q0.03125 0.3593712 0.84375 0.89053345zm-9.734375 2.3292084q-1.296875 1.2970123 -2.25 -0.06225586l1.59375 1.4060745q-1.703125 0.85956573 -2.09375 0.9377365q-0.375 0.07816315 -1.59375 0.8126755q-1.5625 -0.9373245 -2.0 -1.2341537q-0.4375 -0.31245422 -1.96875 -1.0779037q0 -1.609375 -0.046875 -2.078125q-0.046875 -0.46874237 -0.046875 -2.2656174q1.515625 -0.76579285 1.984375 -1.0939713q0.46875 -0.3437996 1.96875 -1.3439674l3.375 1.4683762q0.359375 1.312458 0.71875 1.9061699q0.359375 0.59371185 0.359375 2.6249619zm-9.1875 -1.2958603q0 2.0 -1.796875 1.172081q0.984375 1.2186356 0.65625 1.2655487q-0.328125 0.031288147 -0.53125 1.437561l-2.296875 2.5177002E-4q-2.75 3.0517578E-4 -3.46875 -1.2183609q-0.703125 -1.2342987 -1.0 -3.2811432q0.3125 -1.5156593 0.84375 -1.5157166q0.546875 -6.1035156E-5 0.09375 -1.1875114q1.578125 -0.6251755 2.078125 -0.7658539q0.515625 -0.15630722 1.265625 -0.15639114q0.875 -9.918213E-5 1.3125 0.18735504q0.453125 0.1874466 2.1875 0.62475586q-0.421875 1.5625458 0.109375 1.8124886q0.546875 0.23431396 0.546875 1.6249352zm10.703125 9.201942q-2.0 3.1877213 -2.546875 4.0784073q-0.546875 0.89068604 -2.84375 1.8128128q-0.5 -1.4843216 -0.46875 -0.8593216q0.046875 0.6093674 -1.21875 0.6095123l-1.1875 -0.5936203q-0.78125 -0.9842911 -0.96875 -1.3592682q-0.1875 -0.3749771 -1.5625 -2.0623245q1.4375 -1.1720352 1.25 -2.2188873q2.3125 -1.6096344 3.875 -1.6098099q0.484375 -5.340576E-5 0.875 0.07802582q0.390625 0.07808685 1.234375 0.35923767q1.046875 1.0467606 1.125 1.4530029q0.078125 0.39061737 -0.3125 0.43753815q-0.390625 0.046913147 -0.34375 -0.34371185q0.046875 -0.39063263 3.09375 0.21840668zm-20.140625 -7.8415146q-1.859375 1.859581 -2.8125 2.0940628q-0.9375 0.23447418 -2.21875 0.23461914q-2.40625 2.670288E-4 -2.953125 -1.7340469q-0.546875 -1.734314 -0.546875 -3.734314q1.25 -1.0470123 2.078125 -1.7971039q0.84375 -0.76572037 1.921875 -0.21896362l1.421875 -1.3439102q1.3125 1.98423 1.59375 2.2654495q0.28125 0.28121948 0.625 0.79680634q0.34375 0.49996185 0.484375 1.0936966q0.15625 0.5937271 0.40625 2.3437042zm19.546875 21.0447q-1.71875 0.73456573 -1.546875 1.2501755q0.171875 0.4999771 -0.203125 1.2500229q-0.78125 0.5157089 -1.03125 0.65636444q-0.234375 0.14064789 -1.421875 1.3282776q-1.328125 -0.8279724 -1.4375 -0.8123398q-0.109375 0.015640259 -1.484375 -0.26545715q-0.640625 -0.79680634 -0.40625 -0.8749542q0.25 -0.07815552 -2.0625 -0.04664612q0.59375 -3.0000687 1.0625 -4.953247q0.46875 -1.9687958 3.359375 -1.9691238q2.296875 -2.5177002E-4 2.96875 1.2027969q0.671875 1.2030487 2.203125 3.2341309zm-29.515625 -22.40297q0 1.328125 -1.25 2.9845123q-0.953125 0.4844818 -1.515625 0.64079285q-0.546875 0.15631104 -1.296875 0.15639496q-1.859375 2.0599365E-4 -2.546875 -0.9215927q-0.671875 -0.9374237 -1.640625 -2.312317q0.3125 -1.5937843 0.3125 -2.9844093q1.5625 -0.95329666 2.375 -1.2815132q0.8125 -0.34384155 1.78125 -0.34394836q0.5625 -6.1035156E-5 0.890625 0.09365082q0.328125 0.09371567 1.6875 0.09356308q0.6875 1.7186737 0.9375 2.374897q0.265625 0.6405945 0.265625 1.4999695zm29.046875 33.028023q-0.953125 1.8907318 -1.5625 3.1095505q-0.59375 1.203186 -2.859375 1.2034378q-0.9375 1.0681152E-4 -1.171875 -0.3436203q-0.234375 -0.34371948 -1.0625 0.06262207q-1.359375 -1.3592224 -0.96875 -1.8748932q0.40625 -0.5312958 -1.234375 -0.07798767q0 -2.578125 0.34375 -3.2656631q0.34375 -0.70316315 1.328125 -1.875145l3.40625 -1.1253815q1.203125 1.2029953 1.109375 1.1405029q-0.078125 -0.06249237 1.84375 0.421669q-1.140625 2.0157547 -0.71875 1.6875839q0.4375 -0.3281784 1.546875 0.9373245zm-0.453125 11.312553q0 2.65625 -1.0 1.8438568q-1.0 -0.82801056 1.0625 0.39051056q-1.75 1.0470657 -2.40625 1.484642q-0.640625 0.43756866 -1.8125 0.43769836q-0.609375 6.866455E-5 -1.015625 -0.12488556q-0.390625 -0.14057922 -1.578125 -0.43732452q-0.421875 -0.8437042 -1.046875 -1.6405106q-0.609375 -0.79680634 -0.609375 -1.6718063q0 -1.6875 1.4375 -2.8751602q1.4375 -1.1876602 2.90625 -1.1878204q1.203125 -1.373291E-4 2.015625 0.8122711q0.8125 0.8124161 2.046875 1.5622787l0 1.40625zm-0.3125 12.0312805q-0.546875 1.375061 -0.828125 1.6563416q-0.28125 0.28128052 -0.859375 1.7344742l-4.921875 -0.4057083q-0.484375 -1.1249466 -1.0625 -1.4373779q-0.5625 -0.32806396 -0.875 -2.7811508q0.84375 -1.3438492 1.5 -2.4220428q0.671875 -1.0938263 2.828125 -1.0940628q2.09375 -2.3651123E-4 3.75 2.0933304l0.46875 2.6561966zm0.3125 10.5624695q0 0.515625 -0.4375 1.8281708q-0.6875 0.6875763 -1.515625 1.3595428q-0.828125 0.68759155 -2.015625 0.6877289q-1.46875 1.5258789E-4 -1.28125 -0.7654877q0.203125 -0.76564026 -0.859375 0.65634155q-1.109375 -1.4061279 -1.65625 -2.093567q-0.546875 -0.70306396 -0.546875 -2.046814q0 -1.703125 0.71875 -2.2032013q0.71875 -0.5000763 1.375 -1.5782776l1.875 -2.0599365E-4q0.671875 -7.6293945E-5 2.859375 0.4371872q0.46875 1.156189 0.96875 1.7342682q0.515625 0.56243896 0.515625 1.984314zm65.34375 -69.14789q0 2.65625 -0.34375 3.2500381q-0.34375 0.57816315 -0.84375 2.5469666l-3.671875 4.119873E-4q-0.734375 -0.48429108 -1.8125 -0.70292664q-1.078125 -0.21862793 -1.078125 -2.703003q0 -0.65625 0.09375 -0.9843826q0.09375 -0.32814026 0.09375 -0.93751526q1.484375 -2.234539 3.59375 -2.2347717q0.625 -7.247925E-5 2.5 0.46847153q0.59375 1.2030602 0.1875 1.4062271q-0.390625 0.18754578 1.28125 -0.109516144zm5.34375 10.749405q-0.609375 1.2188187 -1.296875 1.531395q-0.6875 0.2969513 -0.40625 1.3750458l-1.6875 0.67206573q-1.6875 1.8310547E-4 -2.4375 -0.43723297q-0.734375 -0.45304108 -2.5625 -1.7497177q0.515625 -2.0938034 0.9375 -3.7344742q0.4375 -1.6406784 3.015625 -1.6409607q1.4375 -1.6021729E-4 2.6875 0.68720245q1.265625 0.67173004 1.75 3.2966766zm4.59375 12.093239l-2.34375 2.7346344q-1.390625 0.46891022 -1.90625 0.46896362q-0.890625 9.918213E-5 -1.5 -0.26545715q-0.59375 -0.26555634 -1.890625 -0.7810364q-0.375 -1.1718369 -0.53125 -1.5936966q-0.140625 -0.43748474 -0.140625 -1.1406097q0 -0.421875 0.4375 -1.7344208q1.859375 -1.859581 5.015625 -1.859932q1.5625 1.5623245 2.859375 4.1715546zm-14.4375 -10.607765q0 1.71875 -1.3125 2.750145q-1.3125 1.031395 -2.75 1.0315552q-0.84375 9.1552734E-5 -0.75 -1.7342911q0.515625 1.531189 0.296875 1.5155869q-0.21875 -0.031219482 -2.578125 1.3127899q-0.53125 -3.171814 -0.6875 -3.8592987q-0.15625 -0.68748474 -0.15625 -1.4843597q0 -1.59375 0.625 -2.0469437q0.640625 -0.45319366 1.4375 -1.4532852q1.515625 -1.6784668E-4 2.078125 0.04664612q0.5625 0.046813965 2.3125 0.0466156q0.578125 1.468689 1.03125 2.0467606q0.453125 0.5780792 0.453125 1.8280792zm18.46875 20.341698q0 0.734375 -0.140625 1.1093903q-0.140625 0.37501526 -0.140625 2.0312653q-1.71875 0.34394073 -2.1875 0.64086914q-0.453125 0.28129578 -1.5 0.28141022q-1.09375 1.2207031E-4 -1.65625 -0.39043427q-0.546875 -0.39056396 -2.21875 -0.71850586q0 -2.4375 0.78125 -2.359459q0.78125 0.062408447 -0.59375 0.062561035q1.03125 -1.1444092E-4 0.5 0.078071594q-0.515625 0.078178406 -1.15625 -1.2029953q1.390625 -1.6720352 2.28125 -2.4846344q0.90625 -0.8282242 2.4375 -0.828392q1.59375 -1.7547607E-4 2.59375 1.2028351q1.0 1.2030182 1.0 2.5780182zm2.90625 10.499672q0 2.859375 -1.359375 3.1407776q-1.34375 0.2657776 -3.234375 1.3128586q-1.21875 -1.2186127 -1.71875 -1.4529343q-0.484375 -0.2499466 -1.234375 -1.5154877q-0.171875 -0.8281021 -0.25 -1.2499695q-0.078125 -0.42186737 -0.875 -2.4217758q2.296875 -1.1408844 3.125 -1.453476q0.828125 -0.32821655 1.953125 -0.32833862q2.09375 -2.3651123E-4 2.84375 1.2965546q0.75 1.2811661 0.75 2.671791zm4.03125 7.0933075q0 1.484375 -0.671875 3.5156937q-1.421875 0.5626602 -2.078125 0.7658615q-0.640625 0.18756866 -1.40625 0.18765259q-3.59375 4.043579E-4 -3.59375 -3.5933456q0 -0.484375 0.09375 -0.70314026q0.109375 -0.23438263 0 -0.953125l2.328125 -2.7971344q1.46875 0.5779648 1.796875 0.57792664q0.328125 -3.8146973E-5 1.578125 0.24982452q1.359375 1.3592224 1.953125 2.7497864zm-29.859375 -27.215439q-1.796875 1.797081 -2.84375 2.5003204q-1.03125 0.68761444 -2.484375 0.68777466q-1.296875 1.449585E-4 -2.71875 -1.4215698q-0.59375 -1.390564 -0.59375 -2.546814q0 -0.609375 0.21875 -0.8593979q0.234375 -0.2656479 -0.03125 -1.4999924q1.34375 -0.6720276 1.859375 -1.0470886q0.53125 -0.3750534 1.640625 -0.37517548q1.203125 -1.373291E-4 1.03125 1.3748856q0.328125 -1.0937881 0.578125 -0.85944366q0.265625 0.21871948 1.703125 -0.047065735q0.703125 2.1249237 0.734375 2.3905487q0.046875 0.24999237 0.90625 1.7030182zm16.640625 21.998154q0 2.015625 -2.125 3.4221115q-0.921875 0.12510681 -2.703125 0.92217255l-3.859375 -2.6558151q1.359375 -1.2657776 1.0 -1.4063644q-0.34375 -0.14058685 -0.34375 -1.2655869q0.859375 -1.5469666 1.453125 -2.1407852q0.59375 -0.59381866 1.125 -0.7032471q0.53125 -0.109436035 0.640625 0.2342987q0.109375 0.34374237 0.671875 -1.2188263l3.765625 2.015213l0 1.671875q-1.203125 1.296997E-4 -0.421875 0.031295776q0.796875 0.015533447 0.796875 1.0936584zm16.234375 15.295074q-0.71875 2.6094513 -1.734375 3.4689407q-1.015625 0.85948944 -3.59375 1.5629044q-1.203125 -1.2029953 -1.671875 -1.5623169q-0.46875 -0.3593216 -1.609375 -1.7966995q0.34375 -1.3594131 0.40625 -1.5625458q0.0625 -0.21875763 0.0625 -1.7656326q1.40625 -0.14077759 1.390625 -0.4532776q-0.015625 -0.328125 1.46875 -1.4532852q1.40625 0.46858978 2.03125 0.5778961q0.640625 0.109306335 2.578125 1.0778427q-1.140625 1.5001221 -0.28125 0.8437805l0.953125 1.0623932zm3.15625 10.234024q-0.65625 1.3125763 -1.1875 1.7657623q-0.53125 0.45317078 -1.640625 1.2032928q-1.375 -0.34358215 -1.921875 -0.34353638q-0.53125 6.1035156E-5 -2.5 -0.39033508q-0.328125 -1.6874695 -0.5 -2.2499542q-0.171875 -0.5624695 -0.171875 -1.3280945q0 -1.71875 1.390625 -2.5157928q1.390625 -0.7970276 2.484375 -0.79714966q1.078125 -1.0681152E-4 3.109375 0.6715393q0.640625 1.6092987 0.6875 2.2342987q0.0625 0.62498474 0.25 1.7499695zm-27.546875 -26.918816q0 1.421875 -0.046875 1.7968826q-0.046875 0.375 -0.046875 1.84375l-1.609375 0.9689331q-1.53125 0.56266785 -3.9375 0.5629349q-1.921875 -1.9216614 -1.921875 -2.7497864q0 -0.828125 -0.359375 -2.6249619q2.375 -2.3752594 4.421875 -2.3754883l1.890625 -2.1362305E-4q0.734375 1.4842987 0.84375 1.7186584q0.125 0.21873474 0.765625 0.8592911zm-13.5625 -8.310997q-1.828125 1.093956 -2.578125 1.5784149q-0.75 0.46883392 -2.46875 0.46902466q-1.328125 -0.82798004 -2.21875 -1.5310059q-0.890625 -0.7186508 -0.890625 -2.2030258l-0.578125 -1.7343063q2.84375 -1.8128204 3.5 -1.8128891q0.671875 -7.6293945E-5 2.1875 -0.14086914l1.171875 0.5936203q1.28125 1.281105 1.28125 2.14048q0 0.859375 0.59375 2.6405563zm5.828125 10.139984l-2.15625 2.7502365q-1.203125 0.5938797 -2.046875 0.5939789q-0.65625 6.866455E-5 -1.109375 -0.12487793q-0.4375 -0.12495422 -1.671875 -0.4373169q-0.6875 -1.3592987 -0.265625 -1.6718445q0.421875 -0.31254578 -1.53125 -0.046707153q0.671875 -3.0000687 1.265625 -3.6720123q0.59375 -0.67194366 2.28125 -2.1096268q1.234375 0.49986267 1.609375 0.4998169q0.375 -3.8146973E-5 2.09375 0.34352112q0.703125 1.7499237 0.734375 2.187416q0.046875 0.42186737 0.796875 1.6874161zm-9.90625 -1.6864014q-1.0625 1.6094894 -1.734375 2.6251907q-0.671875 1.0000763 -2.5 1.0002747q-1.359375 1.5258789E-4 -2.71875 -1.0778198q-1.34375 -1.0779724 -1.34375 -2.7029724q0 -1.171875 0.921875 -2.5626068q0.9375 -1.4063492 2.671875 -1.4065475q1.0 -1.0681152E-4 1.40625 0.24984741q0.421875 0.23432922 1.171875 0.3748703q1.296875 1.29673 1.359375 1.7967224q0.0625 0.49999237 0.765625 1.7030411zm-4.484375 6.937996q0 3.890625 -1.34375 4.8126526q-1.328125 0.92201996 -3.421875 1.4378815q-1.125 -0.9530029 -3.078125 -1.5465393q0.046875 -1.484375 -0.078125 -1.7031174q-0.109375 -0.23435974 -0.109375 -0.99998474q0 -1.171875 0.625 -1.9531937q0.625 -0.78131866 1.578125 -1.7345505q2.5 -2.746582E-4 4.609375 0.76511383q0.609375 1.2186813 0.703125 1.4999237q0.09375 0.28123474 -1.484375 1.2657852l2.0 -1.8439713zm-3.9375 11.562935q0 1.4375 -1.171875 2.5157623q-1.171875 1.0782471 -2.515625 1.0783997q-1.203125 1.373291E-4 -1.875 -0.671669q-0.46875 -0.1874466 -1.28125 -0.99985504q-0.8125 -0.81240845 -0.8125 -2.1092834l0 -1.484375q1.046875 -1.0469894 1.40625 -0.7345352q0.359375 0.31246185 -0.203125 -1.4687271l2.484375 -2.746582E-4q0.828125 -9.1552734E-5 1.421875 0.23422241q0.59375 0.21868134 1.75 0.78105164q0.796875 1.9999084 0.796875 2.8592834zm-2.71875 7.312805q0 0.609375 -0.4375 1.9219208q-1.203125 1.2032623 -1.671875 0.4376831q-0.453125 -0.76556396 1.078125 1.2342682l-3.03125 3.3569336E-4q-1.4375 1.5258789E-4 -2.703125 -0.9840851q-1.265625 -0.9685974 -1.265625 -2.7029724q0 -2.0625153 2.84375 -4.4378204q1.234375 0.6092377 1.21875 1.0623627q0 0.4375 0 -0.40625q0 1.203125 -0.046875 0.5625q-0.046875 -0.65623474 0.609375 -0.65631104q1.1875 -1.373291E-4 1.703125 0.43730164q0.53125 0.42182922 1.609375 1.1404572q0 1.3125 0.046875 1.6406097q0.046875 0.328125 0.046875 0.75zm112.64064 -61.403137q-1.109375 1.2969971 -0.90625 1.3907242q0.203125 0.07810211 -0.125 2.0468903q-1.359375 -0.18734741 -1.375 0.5470276q-0.015625 0.71875 -2.171875 0.7189865q-1.046875 1.2207031E-4 -1.515625 -0.28108215q-0.453125 -0.2968216 -1.625 -0.5310669q-0.609375 -1.5311813 -0.8125 -2.1249084q-0.203125 -0.6093521 -0.203125 -1.4062271q0 -0.484375 0.078125 -0.8750076q0.078125 -0.39063263 0.53125 -1.734436q1.59375 -0.5314255 1.96875 -0.60959625q0.375 -0.09378815 1.890625 -1.609581l4.265625 4.468277zm-9.234375 -6.6396027q0 1.046875 -0.046875 1.3750076q-0.046875 0.32813263 -0.046875 1.6875076q-1.453125 0.8751602 -2.25 1.3439941q-0.796875 0.46884155 -1.90625 0.46896362q-1.75 1.9836426E-4 -2.328125 -0.7653656q-0.5625 -0.76556396 -1.0 -1.2967606q-1.609375 -2.5779495 -0.421875 -2.5624542q1.203125 -1.373291E-4 -0.359375 -1.2968369q1.484375 -1.109539 2.125 -1.5158615q0.65625 -0.40632248 1.703125 -0.40644073q1.296875 -1.411438E-4 2.46875 0.70285034q1.171875 0.6873703 2.0625 2.265396zm10.96875 17.68628q0 1.296875 -0.6875 1.5000839q-0.6875 0.1875763 -0.359375 1.5625381l-4.296875 1.016098q-1.515625 -1.5154572 -1.75 -2.0310516q-0.234375 -0.5156021 -1.28125 -1.5623627q0.578125 -2.031311 0.984375 -2.7188568q0.40625 -0.7031708 1.40625 -2.2032776q1.828125 -2.0599365E-4 2.15625 0.09350586q0.328125 0.09371185 1.34375 0.09360504q0.84375 0.8436508 1.265625 1.156105q0.4375 0.29682922 1.21875 1.6092377l0 1.484375zm-20.8125 -18.185184q0 1.2343788 -0.453125 1.9531746q-0.4375 0.7031784 -1.65625 1.9220581q-0.96875 1.0681152E-4 -1.296875 0.04701996q-0.328125 0.046913147 -0.84375 0.046966553q-2.25 2.5177002E-4 -2.78125 -1.2184372q-0.53125 -1.218689 -1.984375 -2.9685287q1.546875 -1.5470467 1.75 -3.4689445q2.03125 -2.2506714E-4 2.359375 -0.047138214q0.328125 -0.046913147 0.84375 -0.046970367q1.234375 -1.373291E-4 1.671875 0.3435669q0.453125 0.3280754 1.828125 0.562294q0.5625 2.249939 0.5625 2.874939zm17.53125 27.56055q0 0.578125 -0.046875 1.0000076q-0.046875 0.42188263 -0.046875 2.4218826l-3.203125 0.64097595q-0.859375 9.918213E-5 -1.671875 1.9073486E-4q-0.796875 8.392334E-5 -2.6875 -1.1872025q-0.71875 -2.5155487 0.15625 -2.484398q0.875 0.031158447 -0.65625 -0.9374237q1.578125 -2.5626755 2.375 -2.797142q0.8125 -0.25008392 3.4375 -1.1878815l2.34375 2.9997406l0 1.53125zm-28.125 -28.074997q0 2.296875 -1.96875 1.7345886q0.6875 -0.2813263 2.640625 1.8278351q-2.71875 0.5471802 -3.234375 0.8284836q-0.515625 0.28131104 -1.5 0.28141785q-0.75 8.392334E-5 -1.171875 -0.1248703q-0.421875 -0.12495422 -1.296875 -0.29673004q-1.3906403 -1.1092224 -1.4218903 -1.6248398q-0.03125 -0.53125 -1.5625 -1.8279572q1.578125 -1.5782967 1.6875 -2.437683q1.7343903 -1.4376945 3.6718903 -1.4379082l1.390625 -1.5640259E-4q0.84375 0.84365845 0.421875 1.5937042q-0.40625 0.7500458 0.0625 -0.8437576q1.484375 0.73421097 1.671875 1.2341881q0.203125 0.4843521 0.609375 1.0936852zm-10.51564 0.1574173q-0.640625 1.9063187 -0.640625 3.6875687q-1.859375 0.734581 -2.609375 0.9221649q-0.734375 0.18758392 -1.546875 0.18767548q-1.671875 1.8310547E-4 -3.5 -1.8277359q0.40625 -0.8281708 0.0625 -1.0625076q-0.34375 -0.23433685 -0.34375 -1.7187119q0.4375 -0.7344246 0.59375 -1.2656937q0.171875 -0.5468941 2.390625 -3.3283882l0.46875 2.8749466q0 -1.421875 0.515625 -1.4219322q0.890625 -9.918213E-5 1.515625 0.35920715q0.640625 0.34367752 2.078125 1.0622673q-1.0625 1.3126183 -0.734375 0.8907089q0.328125 -0.42191315 1.75 0.64043045zm30.20314 33.840393q0 5.171875 -4.25 5.172348q-1.859375 2.0599365E-4 -3.859375 -1.9995728q0.1875 -1.8750153 0.25 -2.593773q0.0625 -0.7343826 1.109375 -2.6251297q1.03125 -0.32823944 1.453125 -0.46891022q0.4375 -0.15629578 1.140625 -0.15637207q1.484375 -1.6784668E-4 2.296875 0.8122406q0.8125 0.79678345 1.859375 1.859169zm-30.468765 -21.309113q-1.453125 1.4532852 -2.515625 2.0158997q-1.046875 0.5626221 -3.21875 0.5628586q-1.375 -1.3748474 -2.203125 -2.6091309q-0.46875 -1.4061966 -0.46875 -2.0311966q0 -0.640625 0.328125 -1.3125381q0.34375 -0.68753815 1.0 -0.04698181q0.65625 0.6249237 -0.953125 -0.7342682q1.609375 -0.6408081 2.203125 -0.96899414q0.59375 -0.32819366 1.578125 -0.32830048q1.015625 -1.1444092E-4 1.921875 0.5310364q0.90625 0.5311508 1.953125 1.5779037l0.375 3.3437119zm27.187515 30.481354q0 1.203125 -0.328125 1.7500381q-0.328125 0.5469055 -0.640625 2.4063187q-2.1875 2.4414062E-4 -2.5625 -0.046592712q-0.375 -0.046829224 -0.71875 -0.046791077q0 -1.09375 0 -0.5q0 0.59375 -2.5625 1.8752823q-0.484375 -2.9374466 -0.8125 -3.5780334q-0.3125 -0.64058685 -0.3125 -1.7655869l0 -2.46875l4.046875 -1.6567001q1.34375 0.5310974 1.765625 0.76542664q0.421875 0.23432922 2.03125 0.8747711q0 1.46875 0.046875 1.75q0.046875 0.28124237 0.046875 0.6406174zm-8.21875 -8.280334q0.203125 1.4374771 0.265625 1.6562195q0.078125 0.20311737 0.078125 1.2812424q0 2.046875 -1.453125 2.8282852q-1.453125 0.7657852 -2.703125 0.76592255q-1.03125 1.1444092E-4 -2.703125 -0.82782745q-0.375 -0.9530792 -0.609375 -1.2811813q-0.234375 -0.32809448 -0.65625 -1.3749237q0 -1.5625 0.390625 -2.1406708q0.390625 -0.59378815 1.0 -2.1251068q1.546875 -1.7547607E-4 1.875 -0.09396362q0.328125 -0.09378052 1.078125 -0.09386444q1.828125 -2.0599365E-4 1.890625 0.5935364q0.0625 0.5937424 1.546875 0.81233215zm9.78125 21.436409q-1.421875 1.6021729E-4 -2.15625 -0.64038086q-0.71875 -0.6561737 -1.9375 -1.8747864q0.234375 -1.6406555 0.359375 -2.5781631q0.140625 -0.93751526 1.203125 -2.2032623q1.234375 -0.7345123 1.9375 -0.7345886q0.703125 -7.6293945E-5 2.125 -0.23461151q0.84375 0.84365845 1.203125 1.1561127q0.359375 0.29683685 0.640625 0.70305634q1.421875 1.6248398 0.3125 4.015587q-1.09375 2.390747 -3.6875 2.391037zm10.15625 4.467621q0 1.828125 -1.21875 2.6407623l-1.09375 1.2657471q-1.765625 -0.23417664 -2.71875 -0.29656982q-0.9375 -0.062400818 -2.390625 -1.2653656q-0.390625 -0.9999542 -0.59375 -1.5936813q-0.203125 -0.6093521 -0.203125 -1.4062271q0 -1.484375 1.375 -2.4845276q1.375 -1.0157776 2.5 -1.0158997q1.09375 -1.2207031E-4 1.71875 0.45293427q0.640625 0.4374237 1.4375 0.7498398q1.1875 1.6561127 1.1875 2.9529877zm-39.000015 -38.526917q0 1.3125 -0.5625 2.078186q-0.546875 0.75006104 -1.484375 2.1720428q-1.1875 1.296997E-4 -1.46875 0.047035217q-0.28125 0.046905518 -0.734375 0.046958923q-3.109375 3.4332275E-4 -4.15625 -3.7339096q0.234375 -0.7031555 -0.015625 -2.4375q1.71875 0.046684265 1.515625 -0.31266785q-0.203125 -0.3593521 0.890625 -1.4532242q1.890625 -2.1362305E-4 2.75 0.28094482q0.875 0.26552582 2.625 0.7028351q0.640625 1.9061737 0.640625 2.6092987zm44.531265 45.01068q0 1.734375 -0.71875 3.7813263q-0.703125 2.0469513 -2.875 2.0471954q-0.828125 9.1552734E-5 -1.203125 -0.14048767q-0.375 -0.14057922 -1.484375 -0.14045715q-0.640625 -0.84368896 -0.90625 -0.99990845q-0.25 -0.14059448 -1.390625 -1.2810974q0.203125 -2.0468903 0.4375 -2.9375458q0.25 -0.9062805 0.984375 -1.5313568q0.734375 -0.6250763 1.484375 -0.82829285q0.75 -0.2032013 2.484375 -0.59402466q1.71875 1.1560669 3.1875 2.624649zm-35.078125 -30.605476q-0.421875 1.6406708 -0.578125 2.234436q-0.140625 0.59376526 -1.171875 1.8438797q-1.359375 0.6720276 -2.484375 0.67214966q-1.7187653 1.9073486E-4 -2.7968903 -1.3434372q-1.078125 -1.3592529 -1.078125 -2.812378q0 -0.78125 0.25 -1.3750305q0.265625 -0.6094055 0.890625 -1.5469742q1.5781403 -0.6720505 2.5468903 -0.6721573q0.546875 -6.1035156E-5 0.828125 0.046783447q0.28125 0.046844482 1.515625 0.046707153l2.078125 2.906021zm-9.01564 -4.1708755q-0.65625 2.3125687 -1.359375 3.7032776q-0.6875 1.3750763 -3.046875 1.3753357q-0.78125 8.392334E-5 -1.390625 -0.12484741q-0.609375 -0.14055634 -2.015625 -0.7185211q-0.65625 -1.6093063 -0.453125 -1.7968292q0.21875 -0.20314789 -1.5 -1.3279572q1.96875 -1.9845963 2.78125 -2.7815552q0.8125 -0.81259155 2.578125 -0.8127899l1.296875 -1.449585E-4q1.5 0.89045715 1.578125 1.4060745q0.078125 0.5156174 1.53125 1.0779572zm-0.390625 13.656296q-0.640625 1.3125687 -1.984375 2.3752136q-1.34375 1.0470276 -3.578125 1.0472794q0 -1.28125 -0.6875 -1.2186737q-0.6875 0.046951294 -3.015625 -0.73404694q2.296875 -1.9221268 1.6875 -1.9220581q-0.59375 6.866455E-5 -0.59375 -0.65618134l0 -2.21875q1.953125 -0.48459625 2.4375 -0.78152466q0.484375 -0.3125534 1.8125 -0.31269836q0.453125 -5.340576E-5 0.734375 0.046791077q0.28125 0.046844482 1.546875 0.046699524q1.4375 2.4842148 1.640625 4.3279495zm-0.046875 10.890625q0 1.078125 -0.546875 1.890686q-0.546875 0.81256104 -1.421875 1.4689102q-1.359375 0.5157776 -2.46875 0.51589966q-2.59375 2.89917E-4 -2.8125 -0.8590622q-0.21875 -0.8749771 -0.96875 -1.6248932l0 -1.203125q0 -0.453125 0.046875 -0.7343826q0.046875 -0.28125 0.046875 -1.515625q1.375 -0.8282776 2.078125 -1.3127365q0.703125 -0.5000763 1.890625 -0.500206q0.65625 -7.6293945E-5 0.984375 0.09363556q0.328125 0.09371948 1.65625 0.093566895q0.703125 1.4061737 1.109375 2.093628q0.40625 0.6718292 0.40625 1.5937042zm0 12.0q0 0.703125 -0.578125 2.453186q-1.078125 -0.18737793 -1.078125 0.35949707q0.015625 0.5625 -1.78125 1.2814484q-1.09375 -0.35925293 -1.703125 -0.45292664q-0.609375 -0.093688965 -2.21875 -0.62475586q-0.53125 -1.359314 -0.75 -1.9061737q-0.203125 -0.5624695 -0.203125 -1.3905945q0 -1.984375 1.671875 -2.0314484q-0.46875 -0.56243896 0.171875 -1.2031403q0.640625 -0.64068604 1.84375 -0.64082336q1.625 -1.8310547E-4 3.125 0.96839905q1.5 0.96858215 1.5 3.1873322z" fill-rule="nonzero"/><path fill="#000000" d="m119.9716 188.74908q0 1.125 -1.015625 2.5001068q-1.0 1.3751221 -2.578125 1.3752899q-1.5 1.6784668E-4 -2.578125 -0.5309601q-1.0625 -0.5467529 -2.203125 -2.8122559q0.296875 -0.9062805 0.375 -1.4687958q0.078125 -0.5625 1.34375 -0.25013733l-0.640625 -2.499939q1.640625 1.2029419 1.125 0.12487793q0.796875 -0.40634155 1.546875 -0.40641785q0.828125 -9.1552734E-5 1.203125 0.14048767q0.375 0.14057922 1.3125 0.14047241q1.09375 1.0936279 1.59375 1.8592072q0.515625 0.74993896 0.515625 1.828064zm-6.5625 -5.0617676q0 0.984375 -1.0 2.4844818q-1.65625 0.8283081 -2.78125 0.8284302q-0.484375 6.1035156E-5 -0.875 -0.07801819q-0.390625 -0.07807922 -1.234375 -0.35923767q-0.890625 -0.89053345 -1.140625 -1.2967529q-0.25 -0.42184448 -1.921875 -1.7654114q1.671875 -2.328308 2.578125 -3.234665q0.921875 -0.92196655 2.5 -0.92214966q0.421875 -4.5776367E-5 1.734375 0.43730164q0.890625 0.89053345 1.515625 1.6717072q0.625 0.78118896 0.625 2.234314zm-7.3125 -5.0616913q0 3.875 -3.6875 3.875412q-1.390625 1.5258789E-4 -2.734375 -0.9528198q-1.328125 -0.9529724 -1.328125 -2.8279724l0 -1.265625q0.9375 -1.1876068 1.8125 -1.8908386q0.875 -0.71884155 2.25 -0.71899414q1.390625 -1.5258789E-4 1.921875 0.5310364q0.53125 0.53118896 1.765625 1.2810516l0 1.96875zm-10.3125 -1.0301056q0 0.671875 -0.109375 1.2343903q-0.109375 0.56251526 -0.453125 2.2812958q-2.21875 0.54711914 -2.84375 0.54719543q-2.140625 2.4414062E-4 -4.4375 -2.2963867l0 -1.390625q0 -0.546875 0.421875 -0.6875458q0.4375 -0.15629578 -0.984375 -1.8748932q2.171875 -0.6252289 3.15625 -1.609726q2.015625 0.24978638 2.578125 0.51535034q0.578125 0.2655487 2.671875 0.7809448l0 2.5zm-8.90625 4.141617q-2.3125 1.8908844 -3.78125 1.8910522q-0.84375 9.1552734E-5 -1.390625 -0.2654724q-0.546875 -0.28118896 -0.015625 -1.578125q0.1875 0.5312195 -2.5625 2.3440247q0 -3.4375 0 -4.109375q0 -0.6875 0.234375 -2.3437653q2.171875 -1.5158691 3.640625 -1.516037q0.9375 -1.0681152E-4 1.484375 0.28108215q0.546875 0.26556396 2.203125 0.92163086q0 1.65625 0.09375 2.21875q0.09375 0.56248474 0.09375 2.1562347zm32.59375 36.51201q-0.1875 0.98439026 -0.34375 1.7500305q-0.15625 0.76564026 -1.25 1.8595123q-1.203125 0.48451233 -1.4375 0.10954285q-0.21875 -0.39060974 -0.8125 1.5782166q-2.171875 -1.5622559 -3.171875 -2.218399q-0.984375 -0.6561432 -0.984375 -2.9686432q0.328125 -0.7969055 0.515625 -1.296936q0.1875 -0.50001526 1.09375 -1.7188721q1.875 -0.37519836 2.546875 -0.37527466q2.75 -3.0517578E-4 3.84375 3.2808228zm-7.5625 -0.53041077q0 2.046875 -1.921875 3.9689636q-1.0625 1.2207031E-4 -1.390625 0.047027588q-0.328125 0.046905518 -0.84375 0.046966553q-1.203125 1.373291E-4 -2.078125 -0.8747711q-0.875 -0.8748932 -1.59375 -1.9529419q0.390625 -3.0781708 1.546875 -3.9532928q1.171875 -0.8751373 4.328125 -0.8754883q0.890625 1.3436584 0.984375 1.5780182q0.09375 0.23435974 -0.765625 0.5469513q1.734375 -0.2658081 1.734375 1.4685669zm-33.796875 -33.589996q-0.609375 1.609436 -0.609375 2.515686q-1.03125 1.5469971 -1.671875 1.8283081q-0.625 0.2813263 -1.46875 0.78141785q-1.40625 1.5258789E-4 -1.875 -0.18728638q-0.46875 -0.18745422 -2.546875 -0.18722534q0 -2.65625 0.640625 -2.609436q0.65625 0.046798706 0.296875 0.23434448q-0.828125 0.15634155 -0.984375 -0.2655182q-0.140625 -0.43748474 -0.140625 -1.0468597q0 -0.84375 0.578125 -0.81256104q0.578125 0.015548706 -1.171875 -1.5155029q2.28125 -0.9221344 2.96875 -1.2347107q0.6875 -0.3125763 1.6875 -0.3126831q1.640625 -1.8310547E-4 2.296875 0.7341156q0.65625 0.73431396 2.0 2.0779114zm41.015625 44.182938q0 1.671875 -1.25 2.7345123q-1.234375 1.0470123 -2.71875 1.0471802q-0.703125 7.6293945E-5 -2.265625 -0.5309906q-0.546875 -0.89056396 -1.171875 -1.5155029q-0.625 -0.6249237 -0.625 -2.0155487q0 -0.84375 0.65625 -2.1719513q0.9375 -0.5469818 1.421875 -0.8751526q0.484375 -0.32818604 1.5 -0.73454285q1.921875 -2.1362305E-4 1.8125 0.7029114q-0.109375 0.70314026 2.359375 -0.9221344q0 2.640625 0.140625 3.0624847q0.140625 0.42185974 0.140625 1.2187347zm-16.3125 -10.498184q0 0.84375 -0.484375 1.812561q-0.484375 0.9531708 -1.125 2.250122l-3.875 4.272461E-4q-1.15625 -0.8592529 -1.4375 -1.2498474q-0.265625 -0.39059448 -1.453125 -1.5779572q0.53125 -1.343811 0.53125 -1.656311q0 -0.328125 0 -2.796875q2.40625 0.8591156 2.109375 0.5310211q-0.28125 -0.32809448 1.296875 -1.6407776q0.890625 1.4061584 1.0 0.9998932q0.125 -0.40626526 1.734375 -0.078323364q0.734375 0.9842987 1.21875 1.6248779q0.484375 0.64056396 0.484375 1.781189zm16.03125 20.70134q-0.984375 0.9844818 -1.5 1.5939178q-0.5 0.60943604 -2.1875 0.60961914l-1.765625 1.9836426E-4q-1.03125 -1.0311279 -1.15625 -1.1717529q-0.125 -0.15623474 -1.234375 -0.7186127q0 -2.0625 0.140625 -2.4375153q0.140625 -0.37501526 0.140625 -1.3125153q1.125 -1.1251221 1.71875 -1.6095581q0.59375 -0.50006104 2.453125 -0.50027466q0.953125 0.3748932 1.1875 0.5311127q0.25 0.14060974 2.015625 0.48416138q0 1.9375 0.09375 2.4999847q0.09375 0.56248474 0.09375 2.0312347zm-49.03125 -43.197678q-1.015625 2.046997 -2.015625 2.453354q-1.0 0.3907318 -3.25 0.3909912q-0.9843712 -0.9842682 -1.8281212 -1.6716766q-0.84375 -0.68740845 -0.84375 -2.9061584q0.765625 -1.3750916 1.359375 -2.2657776q0.59375 -0.90631104 2.7031212 -0.9065552q1.234375 -1.2207031E-4 2.90625 1.0465546q0.96875 1.7498932 0.96875 3.8592682zm23.625 22.684875l0 2.09375q-1.84375 -0.6091614 -1.296875 -0.4060974q0.5625 0.20306396 -0.1875 2.0937653l-1.625 -1.1404419q0.375 1.0937042 -0.125 1.2656403q-0.5 0.15629578 -1.015625 0.15635681q-1.0 1.2207031E-4 -1.9375 -0.6404114q-0.9375 -0.6561432 -1.9375 -1.6560364q0 -0.9375 -0.046875 -1.2187347q-0.046875 -0.28125 -0.046875 -0.734375q0 -1.71875 0.84375 -2.3907166q0.84375 -0.67196655 1.859375 -1.4845886q1.125 -1.2207031E-4 2.125 0.32789612q-0.375 1.0937958 0.0625 -0.046875l3.140625 1.171524q-0.84375 1.3907166 0.09375 1.5312347q-0.484375 0.32817078 -0.203125 0.48439026q0.296875 0.15621948 0.296875 0.5937195zm25.96875 25.325241q0 3.09375 -2.046875 5.359604q-1.125 1.2207031E-4 -1.453125 0.047042847q-0.328125 0.046905518 -0.84375 0.046966553q-1.390625 1.5258789E-4 -2.8125 -1.4215698q-0.59375 -1.3905487 -0.59375 -2.5467987q0 -0.515625 0.046875 -0.84376526q0.046875 -0.328125 0.046875 -2.09375q1.6875 -0.5626831 2.171875 -0.70336914q0.484375 -0.14067078 1.046875 -0.14073181l2.140625 -2.4414062E-4l2.296875 2.2966156zm-7.140625 2.5632935l-0.34375 2.4375458q-1.484375 2.3282928 -3.703125 2.328537q-1.40625 1.5258789E-4 -1.96875 -0.49978638q-0.5625 -0.48431396 -2.0 -1.2028961l0 -1.890625q0 -1.53125 0.96875 -2.7969818q0.984375 -1.2657471 2.90625 -1.2659607q2.34375 -2.593994E-4 1.75 0.9685669q-0.578125 0.95318604 0.703125 -0.89071655l1.6875 2.812317zm-46.859375 -40.44792q0 1.265625 -0.640625 2.2188263q-0.484375 0.48443604 -1.0781212 0.9844971q-0.59375 0.48443604 -1.78125 0.48457336q-1.453125 1.5258789E-4 -2.25 -0.34350586q-0.78125 -0.35928345 -2.8125 -2.3903046q1.828125 -0.9533386 2.171875 -0.76586914q-1.734375 0.45332336 -1.734375 -0.65605164l0 -1.984375q1.609375 -0.4533081 2.09375 -0.93774414q0.484375 -0.48442078 2.453125 -0.48464966q0.578125 0.23431396 1.03125 0.2967682q0.46875 0.046813965 1.1562462 0.46861267q0.6875 0.4217987 1.03125 1.2342682q0.359375 0.8124542 0.359375 1.8749542zm39.1875 42.68315l0 1.328125q-0.984375 1.2188568 -1.875 1.8595886q-0.875 0.65634155 -2.09375 0.6564789l-1.0 1.0681152E-4q-2.78125 -1.2809448 -2.78125 -3.8746948q0 -0.703125 0.578125 -2.453186q1.328125 -0.5313873 1.96875 -0.7814636q0.65625 -0.2657013 1.609375 -0.2658081q1.484375 -1.6784668E-4 2.765625 1.2809448q0.40625 0.7968292 0.53125 1.187439q0.125 0.37498474 0.296875 1.0624695zm-39.28125 -30.589386l0 1.953125q-1.8281212 1.8283234 -3.8749962 1.8285522l-1.859375 2.1362305E-4q-0.921875 -0.9217682 -1.515625 -1.5935822q-0.59375 -0.68743896 -0.59375 -1.906189q0 -1.125 0.34375 -1.7969055q0.34375 -0.6875458 1.265625 -1.8595276q0.953125 -0.23446655 1.34375 -0.35951233q0.40625 -0.14067078 1.015625 -0.14074707q0.75 -7.6293945E-5 1.25 0.15611267q0.515625 0.14056396 1.9062462 0.6872864q0.71875 1.9217987 0.71875 3.0311737zm29.96875 28.668549q-0.671875 1.3438263 -2.234375 1.0314941q1.703125 -0.5314331 1.703125 1.5154419q-1.25 1.0470123 -2.0 1.7033386q-0.734375 0.67196655 -2.0625 0.6721039q-1.890625 2.1362305E-4 -1.875 -0.8122864q0.015625 -0.796875 -1.421875 -0.23422241q-0.484375 -1.921814 -0.484375 -2.828064q0 -1.859375 1.828125 -3.6876984q0.84375 -1.0681152E-4 1.125 -0.04701233q0.28125 -0.046905518 0.734375 -0.046951294q1.328125 -1.5258789E-4 2.1875 0.54663086q0.859375 0.54678345 2.5 2.1872253zm-25.671875 -16.200272q-1.5625 1.5626678 -1.8125 1.9533234q-0.25 0.37503052 -1.59375 1.1720581q-1.4375 1.5258789E-4 -2.046875 -0.07791138q-0.5937462 -0.093673706 -1.1093712 -0.39048767q-0.5 -0.31245422 -0.78125 -0.5936737q-0.28125 -0.28121948 -1.421875 -1.1873322l0 -1.625q0 -2.03125 1.359375 -2.9064026q1.359375 -0.8751526 2.7968712 -0.87532043q1.625 -1.8310547E-4 3.78125 1.671463q0 1.421875 -0.296875 1.5781555q-0.28125 0.15628052 0.203125 0.15621948q-0.59375 0.093826294 0.921875 1.1249084zm14.25 13.998413q-0.140625 0.68751526 -0.109375 0.92189026q0.03125 0.21875 0.03125 1.5625l-2.390625 2.3908844q-2.109375 -0.23414612 -3.6875 -0.937088q-1.578125 -0.70295715 -1.578125 -3.0310822q0 -0.546875 0.078125 -0.703125q0.09375 -0.15626526 -0.4375 -1.7968292q3.078125 -1.2815857 4.328125 -1.2817383q2.71875 -2.89917E-4 3.765625 2.874588zm-10.203125 -4.342621q0 0.71875 -0.59375 3.0938263l-4.609375 0.37550354q-1.125 -1.1092529 -1.84375 -1.8279114q-0.703125 -0.7186737 -0.703125 -2.2967987q0 -1.796875 1.296875 -2.6876526q1.296875 -0.9063873 2.671875 -0.9065399q0.921875 -1.0681152E-4 2.828125 0.71842957q0.953125 2.2811432 0.953125 3.5311432zm89.53125 -61.838074q0 2.65625 -0.34375 3.2500458q-0.34375 0.5781555 -0.84375 2.5469666l-3.671875 4.119873E-4q-0.734375 -0.4842987 -1.8125 -0.70292664q-1.078125 -0.21862793 -1.078125 -2.703003q0 -0.65625 0.09375 -0.98439026q0.09375 -0.32814026 0.09375 -0.93751526q1.484375 -2.2345276 3.59375 -2.2347717q0.625 -6.1035156E-5 2.5 0.46847534q0.59375 1.203064 0.1875 1.4062347q-0.390625 0.18754578 1.28125 -0.10952759zm5.34375 10.74942q-0.609375 1.218811 -1.296875 1.5313873q-0.6875 0.2969513 -0.40625 1.3750458l-1.6875 0.6720581q-1.6875 1.8310547E-4 -2.4375 -0.43722534q-0.734375 -0.4530487 -2.5625 -1.7497101q0.515625 -2.093811 0.9375 -3.7344818q0.4375 -1.6406708 3.015625 -1.6409607q1.4375 -1.6784668E-4 2.6875 0.6871948q1.265625 0.6717377 1.75 3.296692zm4.59375 12.093231l-2.34375 2.7346344q-1.390625 0.4689026 -1.90625 0.46896362q-0.890625 9.1552734E-5 -1.5 -0.26545715q-0.59375 -0.26556396 -1.890625 -0.7810364q-0.375 -1.1718445 -0.53125 -1.593689q-0.140625 -0.43748474 -0.140625 -1.1406097q0 -0.421875 0.4375 -1.734436q1.859375 -1.8595734 5.015625 -1.8599243q1.5625 1.5623322 2.859375 4.1715546zm-14.4375 -10.607773q0 1.71875 -1.3125 2.7501526q-1.3125 1.0313873 -2.75 1.0315552q-0.84375 9.1552734E-5 -0.75 -1.7342987q0.515625 1.531189 0.296875 1.5155945q-0.21875 -0.031219482 -2.578125 1.3127899q-0.53125 -3.171814 -0.6875 -3.8592987q-0.15625 -0.68748474 -0.15625 -1.4843597q0 -1.59375 0.625 -2.0469513q0.640625 -0.45318604 1.4375 -1.4532776q1.515625 -1.6784668E-4 2.078125 0.04664612q0.5625 0.046813965 2.3125 0.0466156q0.578125 1.468689 1.03125 2.046753q0.453125 0.5780792 0.453125 1.8280792zm18.46875 20.341705q0 0.734375 -0.140625 1.1093903q-0.140625 0.37501526 -0.140625 2.0312653q-1.71875 0.3439331 -2.1875 0.64086914q-0.453125 0.28129578 -1.5 0.28141785q-1.09375 1.2207031E-4 -1.65625 -0.3904419q-0.546875 -0.39056396 -2.21875 -0.71850586q0 -2.4375 0.78125 -2.3594666q0.78125 0.062408447 -0.59375 0.062561035q1.03125 -1.0681152E-4 0.5 0.07807922q-0.515625 0.078186035 -1.15625 -1.2030029q1.390625 -1.6720276 2.28125 -2.4846191q0.90625 -0.8282318 2.4375 -0.82839966q1.59375 -1.8310547E-4 2.59375 1.2028351q1.0 1.2030182 1.0 2.5780182zm2.90625 10.49968q0 2.859375 -1.359375 3.1407623q-1.34375 0.2657776 -3.234375 1.3128662q-1.21875 -1.2186127 -1.71875 -1.4529266q-0.484375 -0.24995422 -1.234375 -1.5154877q-0.171875 -0.82810974 -0.25 -1.2499847q-0.078125 -0.42185974 -0.875 -2.4217682q2.296875 -1.1408844 3.125 -1.453476q0.828125 -0.32821655 1.953125 -0.32833862q2.09375 -2.4414062E-4 2.84375 1.2965546q0.75 1.2811737 0.75 2.6717987zm4.03125 7.093292q0 1.484375 -0.671875 3.5157013q-1.421875 0.5626526 -2.078125 0.7658539q-0.640625 0.1875763 -1.40625 0.18765259q-3.59375 4.119873E-4 -3.59375 -3.593338q0 -0.484375 0.09375 -0.70314026q0.109375 -0.23439026 0 -0.953125l2.328125 -2.7971344q1.46875 0.57795715 1.796875 0.57792664q0.328125 -3.0517578E-5 1.578125 0.2498169q1.359375 1.3592377 1.953125 2.7497864zm-29.859375 -27.215424q-1.796875 1.7970734 -2.84375 2.5003052q-1.03125 0.6876221 -2.484375 0.68777466q-1.296875 1.5258789E-4 -2.71875 -1.4215698q-0.59375 -1.3905487 -0.59375 -2.5467987q0 -0.609375 0.21875 -0.8594055q0.234375 -0.26565552 -0.03125 -1.5q1.34375 -0.6720276 1.859375 -1.0470734q0.53125 -0.37506104 1.640625 -0.3751831q1.203125 -1.373291E-4 1.03125 1.3748779q0.328125 -1.0937805 0.578125 -0.85943604q0.265625 0.21871948 1.703125 -0.047058105q0.703125 2.1249084 0.734375 2.3905334q0.046875 0.25 0.90625 1.7030334zm16.640625 21.998138q0 2.015625 -2.125 3.4221191q-0.921875 0.12510681 -2.703125 0.9221802l-3.859375 -2.6558228q1.359375 -1.2657776 1.0 -1.4063721q-0.34375 -0.14057922 -0.34375 -1.2655792q0.859375 -1.5469666 1.453125 -2.1407928q0.59375 -0.59381104 1.125 -0.7032471q0.53125 -0.109436035 0.640625 0.2342987q0.109375 0.34375 0.671875 -1.218811l3.765625 2.0151978l0 1.671875q-1.203125 1.373291E-4 -0.421875 0.031295776q0.796875 0.015533447 0.796875 1.0936584zm16.234375 15.295074q-0.71875 2.6094513 -1.734375 3.4689484q-1.015625 0.8594818 -3.59375 1.5628967q-1.203125 -1.2029877 -1.671875 -1.5623169q-0.46875 -0.35931396 -1.609375 -1.7966919q0.34375 -1.3594208 0.40625 -1.5625458q0.0625 -0.21875 0.0625 -1.765625q1.40625 -0.14079285 1.390625 -0.45329285q-0.015625 -0.32810974 1.46875 -1.4532776q1.40625 0.46858215 2.03125 0.5778961q0.640625 0.109298706 2.578125 1.0778351q-1.140625 1.5001221 -0.28125 0.8437805l0.953125 1.0623932zm3.15625 10.234024q-0.65625 1.3125763 -1.1875 1.7657623q-0.53125 0.45318604 -1.640625 1.2033081q-1.375 -0.3435974 -1.921875 -0.34353638q-0.53125 6.1035156E-5 -2.5 -0.39035034q-0.328125 -1.6874695 -0.5 -2.249939q-0.171875 -0.56248474 -0.171875 -1.3281097q0 -1.71875 1.390625 -2.5157776q1.390625 -0.7970276 2.484375 -0.79714966q1.078125 -1.2207031E-4 3.109375 0.67152405q0.640625 1.6092987 0.6875 2.2342987q0.0625 0.625 0.25 1.7499695zm-27.546875 -26.918808q0 1.421875 -0.046875 1.796875q-0.046875 0.37501526 -0.046875 1.8437653l-1.609375 0.96891785q-1.53125 0.56266785 -3.9375 0.5629425q-1.921875 -1.9216614 -1.921875 -2.7497864q0 -0.828125 -0.359375 -2.6249542q2.375 -2.3752747 4.421875 -2.3755035l1.890625 -1.9836426E-4q0.734375 1.4842834 0.84375 1.7186432q0.125 0.21875 0.765625 0.8592987zm-13.5625 -8.310989q-1.828125 1.0939484 -2.578125 1.5783997q-0.75 0.46884155 -2.46875 0.46902466q-1.328125 -0.8279724 -2.21875 -1.5310059q-0.890625 -0.7186432 -0.890625 -2.2030182l-0.578125 -1.734314q2.84375 -1.8128204 3.5 -1.8128815q0.671875 -7.6293945E-5 2.1875 -0.14086914l1.171875 0.5936127q1.28125 1.2811127 1.28125 2.1404877q0 0.859375 0.59375 2.640564zm5.828125 10.139969l-2.15625 2.7502441q-1.203125 0.5938873 -2.046875 0.5939789q-0.65625 7.6293945E-5 -1.109375 -0.12487793q-0.4375 -0.12495422 -1.671875 -0.4373169q-0.6875 -1.3592987 -0.265625 -1.6718445q0.421875 -0.31254578 -1.53125 -0.046707153q0.671875 -3.0000763 1.265625 -3.6720123q0.59375 -0.67193604 2.28125 -2.1096344q1.234375 0.49986267 1.609375 0.49983215q0.375 -4.5776367E-5 2.09375 0.34350586q0.703125 1.7499237 0.734375 2.1874237q0.046875 0.421875 0.796875 1.6874084zm-9.90625 -1.6864014q-1.0625 1.6094971 -1.734375 2.6251984q-0.671875 1.0000763 -2.5 1.0002747q-1.359375 1.5258789E-4 -2.71875 -1.0778198q-1.34375 -1.0779724 -1.34375 -2.7029724q0 -1.171875 0.921875 -2.5626068q0.9375 -1.4063568 2.671875 -1.4065399q1.0 -1.2207031E-4 1.40625 0.24983215q0.421875 0.23432922 1.171875 0.37487793q1.296875 1.2967224 1.359375 1.7967224q0.0625 0.49998474 0.765625 1.7030334zm-4.484375 6.9380035q0 3.890625 -1.34375 4.8126526q-1.328125 0.9220123 -3.421875 1.4378815q-1.125 -0.9530029 -3.078125 -1.5465393q0.046875 -1.484375 -0.078125 -1.7031097q-0.109375 -0.234375 -0.109375 -1.0q0 -1.171875 0.625 -1.953186q0.625 -0.7813263 1.578125 -1.7345581q2.5 -2.746582E-4 4.609375 0.76512146q0.609375 1.2186737 0.703125 1.4999237q0.09375 0.28123474 -1.484375 1.2657776l2.0 -1.8439636zm-3.9375 11.5629425q0 1.4375 -1.171875 2.515747q-1.171875 1.0782623 -2.515625 1.0783997q-1.203125 1.373291E-4 -1.875 -0.6716614q-0.46875 -0.18743896 -1.28125 -0.9998627q-0.8125 -0.81240845 -0.8125 -2.1092834l0 -1.484375q1.046875 -1.0469818 1.40625 -0.7345276q0.359375 0.31245422 -0.203125 -1.4687195l2.484375 -2.746582E-4q0.828125 -1.0681152E-4 1.421875 0.23420715q0.59375 0.21868896 1.75 0.78105164q0.796875 1.9999237 0.796875 2.8592987zm-2.71875 7.31279q0 0.609375 -0.4375 1.921936q-1.203125 1.2032471 -1.671875 0.4376831q-0.453125 -0.7655792 1.078125 1.2342529l-3.03125 3.3569336E-4q-1.4375 1.5258789E-4 -2.703125 -0.9840698q-1.265625 -0.9686127 -1.265625 -2.7029877q0 -2.0625 2.84375 -4.4378204q1.234375 0.6092377 1.21875 1.0623627q0 0.4375 0 -0.40625q0 1.203125 -0.046875 0.56251526q-0.046875 -0.65625 0.609375 -0.6563263q1.1875 -1.2207031E-4 1.703125 0.4373169q0.53125 0.42181396 1.609375 1.1404419q0 1.3125 0.046875 1.640625q0.046875 0.32810974 0.046875 0.74998474zm111.828125 -67.07492q-1.5 2.0001678 -2.265625 2.7658844q-0.765625 0.7657013 -2.625 0.7659149q-0.609375 6.1035156E-5 -1.046875 -0.14051819q-0.421875 -0.15620422 -1.8125 -0.6091614q-0.078125 -1.15625 -0.5 -1.5312042q-0.421875 -0.39057922 -0.421875 -1.5937042q0 -2.078125 1.4375 -3.0626526q1.4375 -1.0001678 3.0 -1.0003357l1.296875 -1.373291E-4q1.09375 1.0936279 1.90625 1.9997864q0.8125 0.89053345 -0.796875 1.9375763l1.828125 0.46855164zm-8.765625 -0.57714844q-1.53125 1.7814178 -2.203125 2.9064941q-0.671875 1.1094513 -2.828125 1.1096954q-1.921875 2.1362305E-4 -2.90625 -1.2653046q-0.96875 -1.2655182 -0.96875 -2.8905182q0 -0.890625 0.40625 -2.1250458q0.890625 -0.5938568 1.515625 -0.98454285q0.625 -0.3907013 1.34375 -0.3907776q0.5625 -0.18756104 1.265625 -0.18763733l1.203125 -1.373291E-4q1.1875 1.1873627 1.5 1.6560822q0.3125 0.46871948 1.671875 2.171692zm1.84375 10.921677q0 0.609375 -0.4375 1.9219208q-0.734375 0.7344513 -1.546875 1.2970428q-0.796875 0.56259155 -2.4375 0.56277466q-0.203125 -1.2656097 -0.203125 -0.76560974q0 0.484375 -1.015625 0.48449707q-2.578125 -1.4997253 -2.578125 -3.6872253l0 -1.203125q1.234375 -1.2345123 2.203125 -2.0002441q0.984375 -0.7657318 2.515625 -0.76589966q0.609375 -6.1035156E-5 2.578125 0.6559601q0.3125 1.5624695 -0.296875 1.6875305q-0.609375 0.1250763 1.21875 -0.48449707l0 2.296875zm-11.28125 -10.483124q-1.4375 2.3126526 -2.046875 2.593979q-0.609375 0.26568604 -1.8125 1.1095734q-2.140625 -0.42164612 -3.375 -1.1715088q-1.234375 -0.7654877 -1.234375 -2.9217377q0 -1.484375 1.046875 -2.7188568q1.0625 -1.2501221 2.734375 -1.2503052q1.125 -1.2207031E-4 2.65625 0.7653198q1.234375 1.4373627 1.34375 2.4529877l0.6875 1.1405487zm-9.34375 -0.3895874q0 1.84375 -1.421875 2.9064026q-1.40625 1.0626526 -2.828125 1.0628204q-0.359375 3.0517578E-5 -1.109375 -0.20300293q-0.734375 -0.2030487 -1.390625 -0.5310974q-1.46875 -1.4685822 -1.46875 -3.2342072q0 -2.203125 0.90625 -2.0782318q0.921875 0.10926819 0.03125 -1.890625q2.734375 -3.0517578E-4 3.296875 0.04650879q0.5625 0.046813965 2.375 0.04660034q0.71875 1.4217987 1.15625 2.187378q0.453125 0.7655792 0.453125 1.6874542zm15.1875 18.170181q0 2.9375 -0.453125 3.5469208q-0.453125 0.59381104 -1.234375 1.8595123q-1.734375 0.64082336 -2.75 0.6409302q-3.296875 3.6621094E-4 -3.484375 -1.7964783q-0.1875 -1.7968597 -0.34375 -3.5155945q1.796875 -2.8126984 4.296875 -2.812973q1.109375 -1.2207031E-4 1.75 0.39042664q0.640625 0.37493896 0.921875 0.76553345q0.296875 0.37495422 0.125 0.62498474q-0.171875 0.23439026 1.171875 0.29673767zm-22.703125 -19.825607q-1.734375 2.8751984 -2.140625 3.4064941q-0.40625 0.5156708 -1.09375 1.2032471q-1.84375 0.92207336 -4.359375 0.9223633q-1.046875 -1.0467682 -1.625 -1.7810669q-0.578125 -0.74993896 -0.578125 -1.999939q0 -1.734375 0.984375 -2.4844818q0.984375 -0.7657471 2.515625 -2.047165q1.078125 0.7811279 1.1875 0.6717529q0.125 -0.10939026 1.4375 -0.10954285q1.28125 1.5467377 1.09375 1.8123779q-0.1875 0.26565552 2.578125 0.40596008zm-10.484375 1.8449249l0 1.546875q-0.9375 0.6094818 -1.171875 0.8907471q-0.234375 0.28128052 -0.921875 0.7501068q-1.484375 0.59391785 -2.53125 0.59402466q-1.640625 1.8310547E-4 -2.625 -1.0778198q-0.96875 -1.0936432 -0.96875 -2.6092682q0 -1.5625 0.703125 -2.4219513q0.71875 -0.87509155 2.421875 -2.2971497l0.953125 1.1092682q0.125 -0.64064026 1.65625 -0.6408081q1.125 1.1248779 1.796875 1.9529266q0.6875 0.8280487 0.6875 2.2030487zm27.375 28.668823l-1.1875 2.9376373q-0.984375 0.7813568 -1.75 1.2501984q-0.765625 0.4532013 -1.875 0.45333862q-2.5625 2.746582E-4 -1.859375 -0.99980164q0.71875 -1.0000763 -0.46875 0.5781708q-1.40625 -2.2498322 -1.46875 -3.0779572q-0.0625 -0.84373474 -0.3125 -3.0780945l3.375 -1.5941162l3.734375 0.358963q0.578125 1.4374237 0.734375 1.7030334q0.171875 0.26560974 1.078125 1.4686279zm-5.828125 8.406906q-1.421875 2.3595276 -1.453125 2.4376678q-0.03125 0.078125 -0.03125 1.875q-2.03125 0.40647888 -2.078125 0.10960388q-0.046875 -0.296875 0.140625 0.35935974q-1.28125 0.6407623 -2.40625 0.6408844q-0.984375 1.2207031E-4 -1.375 -0.24984741q-0.390625 -0.26557922 -0.953125 -0.6561432q-0.546875 -0.71868896 -0.953125 -1.3592682q-0.40625 -0.6562042 -0.40625 -2.0937042q0.390625 -0.9844208 0.6875 -1.4688263q0.3125 -0.48440552 1.078125 -1.5001221q1.0625 -0.2657318 1.546875 -0.39079285q0.5 -0.12506104 1.125 -0.12512207q1.078125 -1.2207031E-4 1.546875 0.39045715q0.484375 0.37493896 1.375 0.9685974q-0.921875 1.0157166 -0.703125 0.5157013q0.21875 -0.5156555 2.859375 0.54655457zm22.46875 29.388123q0.359375 -0.28128052 0.8125 -0.015716553q0.453125 0.26557922 0.453125 1.5780792q-0.921875 1.1094818 -1.640625 1.9845581q-0.71875 0.8907013 -2.421875 0.89089966q-0.390625 4.5776367E-5 -0.625 -0.046813965q-0.234375 -0.046844482 -0.1875 -1.7499695q0.96875 1.4373932 0.5 0.98431396q-0.453125 -0.45307922 -1.171875 2.0001373q-1.921875 -2.4216614 -2.109375 -2.843521q-0.1875 -0.42185974 -1.171875 -1.6405029q0.8125 -1.8125916 1.3125 -3.6563873q1.328125 -0.5314026 1.96875 -0.8439636q0.640625 -0.3282013 1.671875 -0.32832336q0.828125 -9.1552734E-5 2.71875 1.1247101q1.90625 1.1091614 -0.109375 2.5625zm-6.765625 1.5788879q-1.59375 1.2657928 -2.015625 1.6408386q-0.421875 0.37504578 -1.53125 1.0314178q-2.171875 2.4414062E-4 -3.625 -0.780838q-1.453125 -0.7654724 -1.453125 -3.2810974q0 -0.90625 0.25 -1.3437653q0.25 -0.43753052 0.578125 -1.7813263q1.671875 -0.3283081 2.140625 -0.43772888q0.46875 -0.12506104 1.1875 -0.12513733q1.328125 -1.5258789E-4 3.296875 1.2340088q0.25 1.2499695 0.359375 1.6718445q0.125 0.42185974 0.8125 2.1717834zm-23.65625 -22.2005q0 2.390625 -0.375 3.0625458q-0.375 0.6719055 -1.21875 2.046997q-1.734375 0.64082336 -2.75 0.6409302q-1.421875 1.6784668E-4 -2.390625 -0.60910034q-0.96875 -0.6092682 -1.1875 -1.5467377q-0.203125 -0.93748474 -0.203125 -1.3593597q0 -0.4375 -0.484375 -1.656189q1.40625 -1.6876678 2.375 -2.3596497q0.984375 -0.6876068 2.359375 -0.6877594q2.953125 -3.2043457E-4 2.921875 1.0309296q-0.015625 1.03125 0.953125 1.4373932zm13.875 21.560959l0 1.5q-1.328125 0.7970123 -1.46875 0.92204285q-0.140625 0.10939026 -1.015625 0.9844818l-1.296875 1.373291E-4q-0.921875 1.0681152E-4 -1.0 -0.48425293q-0.078125 -0.46875 -1.875 0.65644836q-0.421875 -2.0468292 -0.765625 -2.5467834q-0.328125 -0.5155945 -0.328125 -1.5937195q0 -1.21875 0.59375 -1.890686q0.59375 -0.68756104 1.375 -1.4845276l2.40625 -0.39089966q0.25 0.96873474 0.875 0.23428345q0.625 -0.7344513 2.3125 1.7966156l0 1.078125q-0.265625 3.0517578E-5 -0.046875 0.26564026q0.234375 0.24996948 0.234375 0.9530945zm-8.28125 -1.1865845q-1.296875 2.8595276 -2.328125 3.6408844q-1.03125 0.7657471 -2.921875 0.76594543q-2.328125 2.593994E-4 -3.40625 -2.4214935q0 -1.734375 0.6875 -3.5313263q0.6875 -1.7969513 3.28125 -1.7972412q0.625 -6.1035156E-5 2.640625 0.49971008q0.5625 1.546814 2.046875 2.843521zm-12.4375 -9.498611q0 1.828125 -0.59375 2.703186q-0.578125 0.87506104 -2.640625 2.015915q-1.40625 -0.23422241 -1.96875 -0.42164612q-0.5625 -0.18743896 -2.328125 -0.4841156q-0.359375 -1.8124695 -0.484375 -2.3280792q-0.109375 -0.51560974 -0.109375 -1.2031097q0 -1.15625 0.796875 -1.7969666q0.8125 -0.64071655 0.90625 -0.7501068q0.375 -0.35940552 1.484375 -1.0157776q1.125 -0.6720123 1.375 1.4685974q-0.3125 -1.6874695 -0.078125 -1.078125q0.234375 0.5937195 1.5 -1.3907928q0.90625 1.8280334 1.515625 2.3748322q0.625 0.54681396 0.625 1.906189zm2.984375 11.109039q-0.875 1.4688416 -1.40625 1.8126526q-0.515625 0.34381104 -1.40625 1.2345276l-4.203125 -0.34327698q-1.375 -2.2967224 -1.375 -4.0623474q0 -1.1875 0.34375 -1.5312805q0.34375 -0.34379578 0.578125 -1.9688263l4.1875 -4.5776367E-4q1.203125 0.48423767 1.578125 0.8591919q0.390625 0.37495422 1.328125 1.3279877l0.375 2.6718292zm-9.28125 -0.7958374q-1.109375 1.8282471 -1.390625 2.1564026q-0.28125 0.32815552 -1.0625 1.6251068q-1.125 -0.5467377 -1.3125 -0.18734741q-0.171875 0.37501526 -0.84375 0.37509155q-1.421875 1.5258789E-4 -2.1875 -0.68725586q-0.765625 -0.68740845 -1.6875 -1.8279419q0 -0.71875 -0.046875 -0.99998474q-0.046875 -0.28125 -0.046875 -0.640625q0 -0.75 0.546875 -1.843811q0.625 -0.6250763 0.953125 -0.8594818q0.328125 -0.23440552 0.875 -0.78134155l3.15625 -0.84410095q1.5625 1.8748169 1.75 2.5310516q0.1875 0.65623474 1.296875 1.9842377zm102.20314 -67.51137q0 1.65625 -1.375 2.8595276q-1.375 1.2032776 -2.875 1.2034454l-1.53125 1.6784668E-4q-1.015625 -1.2811279 -1.34375 -1.7654724q-0.3125 -0.48432922 -1.09375 -1.7811279q0.484375 -1.4219208 1.0 -1.2501068q0.53125 0.17181396 -1.1875 -1.4529877q3.359375 -1.5628815 5.765625 -1.7506409q1.109375 1.1092377 2.140625 1.5153809q0.5 1.984314 0.5 2.421814zm-8.15625 0.09466553l0 1.875q-1.59375 -0.21858215 -0.953125 1.2344818q-1.65625 0.4220581 -2.109375 0.5471039q-0.4375 0.12504578 -1.1875 0.12513733q-0.609375 6.1035156E-5 -0.890625 -0.09365845q-0.28125 -0.09371948 -2.328125 -0.0934906q0 -2.0625 -0.140625 -2.3906097q-0.140625 -0.32810974 -0.140625 -1.1093597q0 -1.578125 1.015625 -2.4376068q1.03125 -0.8751221 2.3125 -1.6408844q1.8125 0.35917664 1.59375 1.0310669q-0.203125 0.6562805 1.046875 -1.1876068q0.921875 1.8592682 1.34375 2.4373474q0.4375 0.5624542 0.4375 1.7030792zm-7.4375 0.23519897l-2.734375 3.9221802q-1.65625 -0.2810669 -2.03125 -0.28102112q-0.375 3.0517578E-5 -1.0 -0.09364319q-0.625 -0.109313965 -1.21875 -0.5936127q-0.59375 -0.49993896 -1.578125 -1.8904572l0 -1.390625q0 -0.84375 0.21875 -1.2968903q0.234375 -0.45315552 0.609375 -1.0157013q0.765625 -0.7657013 1.375 -1.0314026q0.609375 -0.28131104 2.03125 -0.8439789q1.53125 0.90608215 1.578125 1.2498322q0.0625 0.34373474 1.0625 0.12487793l1.6875 3.140442zm-9.53125 -1.8114471q0 2.484375 -1.0 3.921997q-0.984375 1.4376068 -3.15625 1.437851l-1.890625 1.9836426E-4q-1.609375 -2.312317 -1.609375 -3.781067l0 -1.6875q0.90625 -0.7657318 1.21875 -1.4688873q0.3125 -0.7187805 2.46875 -0.71902466q1.34375 -1.5258789E-4 2.078125 0.5778961q0.75 0.5780487 1.890625 1.7185364zm-8.34375 1.4853058q0 1.40625 -0.671875 2.7344513q-0.65625 1.3282013 -2.921875 1.3284454q-1.046875 1.2207031E-4 -1.65625 -0.3748169q-0.609375 -0.3905487 -1.5625 -0.9529419q-0.390625 -0.7968445 -0.578125 -1.234314q-0.171875 -0.45310974 -0.171875 -1.1249847q0 -1.921875 1.390625 -2.8439026q1.40625 -0.9376526 2.765625 -0.9378052q0.390625 -4.5776367E-5 0.625 0.046798706q0.234375 0.04685974 1.875 0.046676636q0.390625 1.5468292 0.640625 1.9374237q0.265625 0.39059448 0.265625 1.3749695zm24.65625 32.43477q0 0.75 -0.546875 1.843811q-1.3125 1.3126373 -2.078125 1.5627289q-0.75 0.2500763 -2.8125 0.43780518q-1.640625 -1.3123169 -1.59375 -1.8279419q0.046875 -0.51564026 -1.421875 -1.2810974l2.125 -4.234604l1.59375 1.1404419q-0.5 -1.015564 -0.015625 -1.265625q0.5 -0.25006104 1.25 -0.25013733q0.515625 -6.1035156E-5 2.265625 0.57788086q0.4375 1.093689 0.828125 1.6248932q0.40625 0.5312195 0.40625 1.6718445zm-32.0 -32.44957q-0.71875 1.8282013 -0.8125 1.9844513q-0.09375 0.15626526 -0.09375 2.1875153l-2.296875 -1.3591156q0.359375 -0.015670776 0.828125 0.49990845q0.46875 0.49993896 -0.953125 1.9219818q-2.0 -0.49978638 -3.6718903 -1.2183533q-1.65625 -0.71855164 -1.65625 -3.0623016q0 -1.71875 1.171875 -2.7970123q1.171875 -1.0782623 2.7031403 -1.0784302q0.703125 -7.6293945E-5 2.453125 0.57785034q-0.4375 1.187561 0.140625 0.96873474q0.59375 -0.21881104 2.1875 1.3747711zm23.84375 32.54422q0 1.25 -0.65625 2.0938263q-0.65625 0.82818604 -2.375 1.8752594l-0.65625 -1.6717987q0.125 -0.50001526 0.421875 0.40620422q0.3125 0.8905792 -0.703125 0.8907013q-1.75 1.9836426E-4 -2.671875 -1.2184601q-0.921875 -1.2342682 -0.921875 -2.6561432q0 -1.9375 2.078125 -3.500229q0.9375 -1.0681152E-4 2.359375 -0.2815094q1.515625 0.74983215 2.3125 1.6559906q0.8125 0.89053345 0.8125 2.4061584zm-25.78125 -24.840881q0 0.71875 -0.125 1.2187653q-0.125 0.484375 -0.59375 2.375061l-2.40625 2.593994E-4q0 -1.328125 -0.296875 0.8437958q-3.5312653 -1.5308685 -4.8906403 -5.186966q1.625 -1.3126831 2.046875 -1.6096039q0.4375 -0.31254578 1.359375 -1.4689026q2.1250153 0.29664612 3.5156403 1.0464935q1.390625 0.7342224 1.390625 2.7810974zm1.5625 7.827942q-1.078125 1.5001221 -1.796875 3.8595734q-1.84375 -0.35916138 -2.171875 -0.28100586q-0.3125 0.06253052 -1.0 0.06260681q-1.3281403 1.5258789E-4 -2.6875153 -1.0153198q-0.296875 -0.7499695 -0.703125 -1.2811737q-0.390625 -0.5312042 -0.390625 -1.6718292q0 -0.515625 0.4375 -1.8281708q1.0 -1.0001221 1.46875 -1.1876678q0.46875 -0.18754578 1.2656403 -0.9845123q2.0625 0.29664612 2.609375 0.6403351q0.546875 0.34368896 1.5 0.90608215q0.53125 1.062439 0.609375 1.3436737q0.078125 0.265625 0.859375 1.4374084zm15.171875 16.138947q-0.671875 2.0625763 -1.4375 3.4064026q-0.75 1.3438416 -3.515625 1.3441467q-0.578125 -0.28118896 -1.171875 -0.40612793q-0.578125 -0.1405487 -1.5 -1.0623322q-0.640625 -1.2811737 -0.640625 -2.4061737q0 -0.75 0.15625 -1.0781403q0.171875 -0.34376526 0.421875 -1.0781708l2.15625 -1.6564941l2.453125 -0.23464966q0.953125 0.9530182 1.421875 1.3123474q0.46875 0.35931396 1.65625 1.8591919zm-14.859375 -9.107727q-0.703125 2.8438263 -0.984375 3.2501068q-0.265625 0.39065552 0 2.734375q-2.828125 3.2043457E-4 -3.203125 -0.046524048q-0.375 -0.046829224 -0.625 -0.046798706q0 -1.234375 -0.171875 -1.5156097q-0.171875 -0.29684448 1.703125 3.859192q-3.6875153 -2.952713 -3.7343903 -2.983963q-0.046875 -0.03125 -1.671875 -0.5779419q0 -2.015625 0.0625 -2.359375q0.078125 -0.35939026 1.359375 -0.3907776q0.375 0.09370422 -1.78125 -0.62480164q1.296875 -1.6407776 2.171875 -2.3439941q0.87501526 -0.71884155 2.3437653 -0.7190094q1.6875 -1.8310547E-4 2.390625 0.9841156l2.140625 0.78100586zm5.859375 10.671219q-1.984375 3.093979 -4.484375 3.0942535q-0.625 7.6293945E-5 -2.78125 -0.5309448q-0.296875 -1.2030945 -0.5625 -1.593689q-0.25 -0.39059448 -0.25 -1.4687195l0 -0.859375q0.421875 -1.0469208 0.796875 -1.1250916q0.390625 -0.07817078 -0.140625 -2.0781097q3.09375 -3.3569336E-4 3.859375 0.28082275q0.78125 0.2655487 2.4375 0.6872406q0.703125 1.7655334 0.703125 2.1405334q0 0.375 0.421875 1.4530792zm34.90625 35.027374q-2.484375 2.4846497 -3.359375 2.6722565q-0.875 0.18759155 -2.421875 0.7658844q-3.078125 -1.968399 -3.078125 -4.374649q0 -1.34375 1.21875 -2.6563873q1.21875 -1.3126373 2.75 -1.3128052q1.90625 -2.1362305E-4 1.859375 0.8591614q-0.046875 0.84376526 0.9375 0.09364319q1.296875 1.9373627 1.1875 2.484253q-0.109375 0.54689026 -0.109375 0.90626526q-1.359375 0.10951233 1.015625 0.5623779zm-41.125 -36.386047q-0.984375 1.9688568 -1.4375 2.8126526q-0.453125 0.8437958 -1.9375 1.8283386q-0.984375 1.0681152E-4 -1.453125 0.047042847q-0.46875 0.046920776 -3.0312653 0.047210693q0.9375 -2.0001068 0.09375 -1.8906403q-0.84375 0.09384155 -0.84375 -1.9842834q0 -1.078125 0.5 -1.8281708q0.515625 -0.76568604 1.609375 -1.8595581l1.2031403 -1.373291E-4q0 0.84375 0.0625 0.375q0.078125 -0.46876526 0.59375 -0.4688263l1.3125 -1.373291E-4l3.328125 2.9215088zm32.421875 36.012024q0 0.984375 -0.328125 1.4687805q-0.3125 0.46878052 -0.75 1.3282013q-1.953125 0.9846039 -4.5625 0.9848938q-1.125 -1.1248779 -1.40625 -1.5623474q-0.265625 -0.43746948 -0.890625 -1.2655334q0 -1.359375 0.09375 -1.78125q0.09375 -0.42189026 0.09375 -2.6718903q2.0 1.2185211 1.40625 1.0779724q-0.59375 -0.15618896 -0.046875 -2.859375q3.109375 1.249649 3.828125 1.4839478q0.71875 0.2342987 1.671875 1.6560669q0.0625 0.109375 0.46875 0.5312042q0.421875 0.40620422 0.421875 1.6093292zm-33.46875 -28.996292q0 2.484375 -0.1875 3.0937805q-0.1875 0.60939026 -0.1875 2.3281403q-1.71875 0.6876831 -2.375 0.9533844q-0.640625 0.2500763 -1.5 0.25016785l-2.5000153 2.746582E-4q-0.4375 -1.734314 -0.765625 -2.0624084q-0.328125 -0.32809448 -0.328125 -2.1874695q0 -0.9375 0.5625 -2.078186l3.7656403 -2.219162q1.421875 1.1404572 1.59375 1.2498169q0.1875 0.09373474 1.921875 0.6716614zm25.859375 28.184631q-0.6875 1.3750763 -0.75 1.9532013q-0.046875 0.57814026 -1.140625 1.9376373q-1.609375 0.60954285 -2.53125 0.60964966q-1.625 1.8310547E-4 -2.703125 -1.1715698q-1.078125 -1.1717529 -1.078125 -2.703003q0 -0.75 0.546875 -1.843811q0.484375 -0.48443604 0.6875 -0.6407013q0.203125 -0.17190552 0.34375 -0.39067078l1.0 -1.0001068q3.46875 -3.8146973E-4 3.828125 0.74957275q0.375 0.7343292 1.796875 2.4998016zm-25.234375 -17.856567q-0.65625 2.281311 -1.171875 2.140747q-0.515625 -0.15618896 0.65625 1.3905487q-1.921875 0.7814636 -2.578125 1.0471649q-0.640625 0.2500763 -1.5 0.25016785q-0.453125 4.5776367E-5 -0.73439026 -0.046798706q-0.28125 -0.046829224 -1.75 -0.046676636q-0.59375 -1.4842987 -1.0 -2.0155182q-0.390625 -0.5312042 -0.390625 -1.7655792l0 -1.03125q1.421875 -2.8439026 3.6875153 -2.844162q0.6875 -7.6293945E-5 1.109375 0.09362793q0.421875 0.09370422 1.90625 0.093551636q0.765625 1.5311584 0.84375 1.7186432q0.078125 0.171875 0.921875 1.0155334zm16.25 18.57631q0 1.390625 -0.953125 2.7188568q-0.953125 1.3438568 -2.828125 1.3440704q-1.484375 1.6784668E-4 -2.734375 -1.0621948q-1.234375 -1.0467377 -1.234375 -2.8123627q0 -1.65625 0.6875 -2.2657013q0.703125 -0.6094513 1.8125 -1.7189484q1.890625 0.23416138 2.859375 0.54655457q0.984375 0.2967682 1.984375 1.4841461q0.40625 0.8280792 0.40625 1.7655792zm-16.609375 -10.123154q-0.234375 1.1719055 -0.5 1.953186q-0.25 0.7656555 -1.34375 1.5939026q-1.53125 0.60954285 -2.484375 0.60964966q-2.1250153 2.2888184E-4 -2.8281403 -1.2965698q-0.703125 -1.2967834 -0.921875 -3.0311432q0.890625 -1.7657166 3.6562653 -4.531662q0.953125 1.8905334 1.4375 1.4998474q0.5 -0.40631104 2.25 1.3435059q-0.8125 0.82821655 -1.296875 0.8907623q1.28125 -0.9220123 2.03125 0.9685211zm9.265625 12.483353q-2.71875 0.6878052 -3.15625 1.047226q-0.421875 0.37504578 -1.90625 0.37521362q-1.484375 1.5258789E-4 -2.671875 -1.1872101q-0.234375 -0.45309448 -0.625 -0.9217987q-0.390625 -0.48432922 -0.390625 -1.6718292q0 -0.84375 0.203125 -1.2656555q0.21875 -0.43753052 0.515625 -1.281311q1.0 -0.6094818 1.640625 -1.1095581q0.640625 -0.50006104 1.984375 -0.5002136q0.890625 -1.0681152E-4 2.65625 0.5934601q-0.625 1.375061 0.109375 1.2968597q0.734375 -0.09384155 0.734375 1.6092834q0 0.828125 -0.8125 0.89071655q-0.796875 0.046966553 0.53125 0.046813965q-1.203125 1.373291E-4 -0.625 -0.1561737q0.59375 -0.17193604 1.8125 2.2341766zm-10.03125 -4.467636q-0.21875 3.7812653 -3.5625 6.0160217q-0.84376526 -1.1405334 -1.9218903 -0.37478638q-1.25 -1.2498627 -1.21875 -1.6717377q0.03125 -0.42189026 -1.296875 -0.5311127l0 -1.890625q0 -0.703125 0.21875 -0.95314026q0.234375 -0.26565552 -0.03125 -1.390625q1.609375 -0.9689331 2.046875 -1.1252289q0.453125 -0.17192078 1.625 -1.1095581q2.7656403 1.2340698 2.9375153 1.7653046q0.171875 0.5312195 1.203125 1.2654877z" fill-rule="nonzero"/><path fill="#000000" fill-opacity="0.0" d="m211.57742 256.042l144.28348 0l0 81.35434l-144.28348 0z" fill-rule="evenodd"/><path fill="#000000" d="m259.70242 283.35138q-0.96875 1.484375 -1.1875 1.765625q-0.203125 0.28125 -0.96875 1.03125l-0.765625 0q-0.3125 0 -0.390625 -0.28125q-0.0625 -0.296875 -0.953125 0.625q-0.328125 -1.109375 -0.703125 -1.34375q-0.359375 -0.234375 -0.359375 -1.15625q0 -1.359375 0.671875 -1.59375q0.6875 -0.25 1.125 -0.359375q0.453125 -0.140625 0.828125 -0.140625q0.5 0 1.0 0.421875q0.5 0.421875 1.703125 1.03125zm-4.5625 -3.0625q0 0.703125 -0.296875 1.078125q-0.296875 0.359375 -0.671875 1.40625q-1.46875 -0.3125 -2.484375 -0.53125q-1.015625 -0.21875 -1.015625 -1.84375q0 -0.421875 0.125 -0.59375q0.125 -0.1875 0.03125 -0.78125q1.296875 -0.875 2.15625 -0.875q0.546875 0 0.921875 0.203125q0.375 0.203125 1.171875 0.703125q0 0.65625 0.03125 0.8125q0.03125 0.15625 0.03125 0.421875zm-4.3125 -4.203125q-0.25 1.453125 -0.421875 2.015625q-0.171875 0.546875 -0.90625 0.125q0.640625 1.515625 -1.203125 1.515625q-0.546875 0 -1.53125 -0.421875q-0.234375 -0.578125 -0.453125 -0.90625q-0.21875 -0.34375 -0.21875 -0.9375q0 -0.484375 0.34375 -1.125l1.0625 -0.859375l0.703125 0q0.734375 0 1.21875 0.375l1.40625 0.21875zm10.953125 13.734375q-0.90625 1.625 -2.234375 1.625q-0.703125 0 -1.109375 -0.21875q-0.40625 -0.21875 -1.203125 -0.890625l0 -1.1875q0 -0.484375 0.28125 -1.171875q0.5 -0.3125 0.859375 -0.59375q0.375 -0.28125 1.0625 -0.28125q0.296875 0 1.078125 0.28125q0.875 1.0625 0.875 1.34375q0 0.265625 0.390625 1.09375zm-17.109375 -12.96875q0 1.234375 -0.921875 1.578125q-0.90625 0.34375 -1.890625 0.46875q-0.6875 -0.578125 -0.765625 -0.640625q-0.078125 -0.078125 -1.84375 -0.46875q0.984375 -1.40625 1.15625 -1.40625q0.1875 0 -0.140625 0q0 -0.90625 0.65625 -1.265625q0.65625 -0.359375 1.375 -1.5q1.234375 1.171875 1.40625 1.328125q0.171875 0.140625 0.859375 0.578125q0 0.625 0.046875 0.78125q0.0625 0.15625 0.0625 0.546875zm18.015625 18.75q-0.921875 1.6875 -2.46875 1.6875q-0.203125 0 -0.359375 -0.03125q-0.15625 -0.03125 -0.765625 -0.03125q-0.5 -0.78125 -0.734375 -1.1875q-0.234375 -0.40625 -0.234375 -0.953125q0 -0.5625 0.421875 -1.453125q0.78125 -0.59375 1.125 -0.59375q0.359375 0 1.09375 -0.4375q0.625 0.625 1.59375 0.8125l0.328125 2.1875zm-0.578125 6.09375q0 0.3125 -0.21875 1.0625q-0.953125 0.9375 -1.984375 0.9375q-0.375 0 -0.609375 -0.0625q-0.234375 -0.078125 -0.96875 -0.234375q-0.3125 -0.75 -0.4375 -1.03125q-0.125 -0.28125 -0.125 -0.78125q0 -0.265625 0.015625 -0.390625q0.03125 -0.125 0.03125 -0.75q0.78125 -0.546875 1.015625 -0.265625q0.234375 0.28125 -0.28125 -0.375q0.875 -0.46875 1.359375 -0.46875q0.71875 0 0.84375 0.328125q0.140625 0.3125 0.78125 0.15625q0.34375 0.78125 0.453125 1.09375q0.125 0.3125 0.125 0.78125zm-23.4375 -22.15625q-1.015625 0.625 -1.375 0.9375q-0.359375 0.296875 -1.1875 0.296875l-0.765625 0q-0.484375 -0.484375 -0.71875 -0.703125q-0.21875 -0.234375 -0.421875 -0.6875q-0.109375 -0.328125 -0.15625 -0.546875q-0.03125 -0.21875 -0.03125 -0.421875q0 -0.578125 0.359375 -0.625q0.359375 -0.046875 -0.15625 -0.75q1.28125 -0.609375 1.796875 -0.609375q0.640625 0 1.0625 0.234375q0.4375 0.234375 1.234375 0.734375l0 0.921875q0 0.03125 0.03125 0.140625q0.03125 0.09375 0.328125 1.078125zm20.671875 27.859375q-0.34375 2.484375 -2.34375 2.484375q-1.1875 0 -1.5 -0.5625q-0.3125 -0.578125 -0.734375 -1.34375q0.28125 -1.046875 0.796875 -1.71875q0.515625 -0.671875 1.53125 -0.671875q0.515625 0 1.796875 0.609375q-0.578125 0.71875 -0.3125 0.546875q0.265625 -0.171875 0.765625 0.65625zm-26.125 -25.484375q0 1.125 -0.796875 1.71875q-0.796875 0.578125 -1.671875 0.578125q-0.8125 0 -1.4375 -0.703125q-0.609375 -0.703125 -0.609375 -1.390625q0 -0.703125 0.328125 -1.171875q0.328125 -0.484375 0.984375 -0.984375l0.90625 -0.109375q0.703125 0.15625 1.5 0.515625q0.796875 0.359375 0.796875 1.546875zm21.5 30.828125l0 1.265625q-1.0625 0.4375 -1.453125 0.5q-0.390625 0.0625 -0.796875 0.0625q-0.734375 0 -1.171875 -0.3125q-0.4375 -0.328125 -1.375 -1.09375q0.578125 -1.34375 1.0625 -2.03125q0.484375 -0.703125 1.640625 -0.703125q0.984375 0 1.53125 0.796875q0.5625 0.796875 0.5625 1.515625zm-25.203125 -25.265625q0 0.234375 -0.03125 0.390625q-0.015625 0.15625 -0.015625 0.875q-0.875 0.515625 -1.328125 0.703125q-0.453125 0.1875 -0.984375 0.1875q-0.453125 0 -1.4375 -0.34375q-0.1875 -0.515625 -0.265625 -0.578125q-0.0625 -0.078125 -0.515625 -0.78125q0.21875 -1.265625 0.796875 -2.15625q0.671875 -0.296875 1.046875 -0.359375q0.390625 -0.078125 0.734375 -0.078125l1.078125 0q0.5 0.796875 0.703125 1.171875q0.21875 0.359375 0.21875 0.96875zm-1.5625 4.828125q0 2.171875 -0.515625 3.109375q-0.515625 0.9375 -2.5 0.9375q-0.46875 -0.453125 -0.953125 -0.765625q-0.484375 -0.3125 -0.484375 -1.234375q0 -0.359375 0.046875 -0.515625q0.046875 -0.15625 0.046875 -0.796875q0.6875 -0.390625 1.046875 -0.765625q0.375 -0.390625 1.109375 -0.390625q0.828125 0 0.953125 0.25q0.140625 0.25 1.25 0.171875zm20.359375 23.09375q0 0.671875 -0.296875 1.15625q-0.484375 0.59375 -0.921875 0.71875q-0.4375 0.125 -1.234375 0.40625q-0.625 -0.484375 -0.75 -0.546875q-0.109375 -0.046875 -1.046875 -0.421875q0 -0.796875 -0.03125 -0.921875q-0.015625 -0.125 -0.015625 -0.390625q0 -0.34375 0.203125 -0.9375q0.25 -0.40625 0.734375 -0.828125q0.484375 -0.4375 1.109375 -0.4375q0.96875 0 0.9375 0.375q-0.015625 0.359375 0.640625 -0.03125q0.671875 1.140625 0.671875 1.859375zm-20.15625 -14.484375l0 0.53125q-0.40625 0.609375 -0.6875 1.140625q-0.265625 0.53125 -1.453125 0.53125q-1.078125 0 -2.09375 -1.0q-0.21875 -0.859375 -0.21875 -1.3125q0 -0.734375 0.28125 -1.046875q0.28125 -0.328125 0.90625 -1.390625q0.71875 0.890625 0.828125 0.609375q0.125 -0.296875 1.0625 -0.125q0.140625 0.40625 0.75 0.40625q0.625 -0.015625 0.625 1.65625zm13.8125 14.734375q0 0.90625 -0.65625 1.5q-0.640625 0.609375 -1.5 0.609375q-0.890625 0 -1.359375 -0.421875q-0.46875 -0.40625 -0.640625 -0.84375q-0.171875 -0.4375 -0.21875 -0.671875q-0.03125 -0.234375 -1.203125 -1.765625q2.0625 -0.3125 2.140625 -0.34375q0.078125 -0.03125 0.0625 -0.015625q0 0 0.078125 -0.078125q0.09375 -0.09375 0.890625 -0.421875q1.09375 0.25 1.75 0.859375q0.65625 0.59375 0.65625 1.59375zm-11.46875 -8.0625q0 0.578125 -0.171875 0.84375q-0.171875 0.265625 -0.421875 0.765625q-0.484375 0.25 -0.90625 0.390625q-0.40625 0.140625 -0.703125 0.140625q-0.46875 0 -0.515625 -0.359375q-0.046875 -0.359375 -0.046875 0.203125q0 -0.703125 0.03125 -0.3125q0.046875 0.375 -1.078125 0.375q-0.484375 -1.140625 -0.546875 -1.359375q-0.046875 -0.234375 0.0625 -0.578125l-0.359375 -0.515625l1.65625 -2.484375q0.546875 1.359375 0.546875 1.390625q-0.109375 -0.453125 -0.015625 -0.546875q0.09375 -0.109375 0.328125 -0.109375q0.46875 0 0.96875 0.328125q0.515625 0.3125 0.96875 0.6875q0.203125 0.90625 0.203125 1.140625zm5.0 4.890625q0 0.859375 -0.328125 1.078125q-0.328125 0.203125 -0.4375 0.640625q-0.640625 0.296875 -0.921875 0.390625q-0.265625 0.09375 -0.671875 0.09375q-0.8125 0 -1.171875 -0.390625q-0.34375 -0.390625 -1.3125 -0.734375q0.328125 -1.4375 0.515625 -1.953125q0.1875 -0.515625 1.0 -1.328125q1.140625 0 2.234375 0.4375q1.09375 0.4375 1.09375 1.765625zm58.381256 -32.203125q-0.421875 0.515625 -0.78125 1.0625q-0.359375 0.53125 -1.375 0.53125q-2.09375 0 -2.09375 -2.09375l0 -0.578125q0.4375 -0.859375 0.84375 -1.0625q0.40625 -0.21875 1.03125 -0.59375q1.125 0.28125 1.75 0.828125q0.625 0.53125 0.625 1.90625zm1.703125 1.203125q0.109375 0.84375 0.296875 0.875q0.09375 0.21875 0.25 0.59375q0.171875 0.375 -0.921875 0.390625q1.0625 -0.265625 1.0625 0.765625q-0.609375 0.984375 -0.890625 1.109375q-0.28125 0.109375 -0.90625 0.40625q-0.75 0 -0.96875 -0.09375q-0.203125 -0.109375 -1.015625 -0.109375q-0.46875 -1.390625 -0.46875 -2.0q0 -0.578125 0.390625 -1.53125q0.703125 0.421875 0.578125 -0.703125q1.1875 0.203125 1.296875 0.234375q0.109375 0.015625 0.3125 0.015625q0.15625 0.046875 0.984375 0.046875zm-5.21875 -4.3125l-0.328125 1.296875q-0.390625 -0.140625 0.359375 0.53125q-1.0 0.8125 -1.46875 1.0625q-0.453125 0.25 -1.09375 0.25q-0.828125 0 -1.5625 -0.734375q-0.328125 -0.78125 -0.328125 -1.46875q0 -2.046875 1.984375 -2.046875q0.640625 0 1.046875 0.28125q0.421875 0.265625 1.390625 0.828125zm5.90625 9.453125l0 0.921875q0 0.328125 -0.21875 1.328125q-1.25 0.765625 -2.03125 0.765625q-0.953125 0 -1.328125 -0.453125q-0.359375 -0.46875 -1.109375 -1.34375l1.03125 -1.875q1.09375 -0.421875 1.671875 -0.421875q0.703125 0 1.140625 0.421875l0.84375 0.65625zm-10.515625 -10.125q0 1.8125 -0.3125 1.890625q-0.296875 0.078125 -0.3125 1.046875q-1.234375 0 -1.5625 -0.046875q-0.328125 -0.046875 -0.703125 -0.21875q-1.359375 -0.703125 -1.359375 -1.890625q0 -0.9375 0.21875 -1.0625q0.234375 -0.140625 0.71875 -1.03125q1.25 0 1.65625 0.109375q0.421875 0.09375 0.640625 0.34375q0.234375 0.234375 0.296875 0.328125q0.0625 0.078125 0.71875 0.53125zm-4.984375 0.515625q-0.125 1.40625 -1.4375 2.046875l-0.671875 0q0 -1.03125 0.265625 -0.40625q0.265625 0.625 -0.921875 0.625q-0.5625 -0.5625 -1.03125 -1.0625q-0.46875 -0.5 -0.46875 -1.25q0 -1.890625 1.890625 -1.890625q0.46875 0 0.828125 0.140625q0.375 0.140625 1.328125 0.53125q-0.734375 0.90625 -0.390625 0.734375q0.34375 -0.171875 0.609375 0.53125zm13.890625 14.796875q0 0.53125 -0.484375 1.421875q-0.484375 0.875 -1.453125 0.875q-0.71875 0 -1.46875 -0.625q-0.734375 -0.640625 -0.734375 -1.515625q0 -0.8125 0.640625 -1.5q0.65625 -0.703125 1.5625 -0.703125q1.09375 0 1.28125 0.375q0.1875 0.375 0.65625 0.8125l0 0.859375zm-18.0625 -14.734375q0 0.4375 -0.109375 0.734375q-0.09375 0.28125 -0.34375 1.359375q-1.046875 0 -1.359375 0.078125q-0.3125 0.078125 -1.546875 0.078125q-0.28125 -0.796875 -0.59375 -1.125q-0.296875 -0.34375 -0.296875 -1.234375q0.21875 -0.578125 0.40625 -0.828125q0.1875 -0.265625 0.34375 -0.359375q0.15625 -0.09375 0.203125 -0.125q0.0625 -0.046875 0.484375 -0.46875q0.90625 0 1.109375 0.078125q0.21875 0.078125 0.734375 0.078125l0.96875 0.96875l0 0.765625zm14.84375 17.015625l0 0.71875q-0.640625 0.75 -1.609375 1.578125q-0.671875 -0.296875 -1.546875 -0.296875q-1.046875 -1.296875 -1.046875 -2.203125q0 -0.34375 0.234375 -1.0q0.734375 -1.0 1.859375 -1.0q0.984375 0 1.671875 0.8125q0.171875 0.359375 0.296875 0.65625q0.140625 0.296875 0.140625 0.734375zm4.578125 5.15625q0 0.734375 -0.6875 1.671875q-0.34375 0.125 -0.796875 0.65625q-1.421875 -0.15625 -2.125 -0.625q-0.703125 -0.484375 -0.703125 -1.75q0 -0.4375 0.359375 -1.09375q0.390625 -0.3125 0.75 -0.578125q0.375 -0.265625 1.0 -0.265625q0.6875 0 1.4375 0.484375q0.765625 0.484375 0.765625 1.5zm-3.515625 -3.375q-0.890625 0.46875 -0.28125 0.46875q0 0.015625 0.015625 0.171875q0.03125 0.15625 0.03125 0.796875q-1.125 1.125 -2.921875 1.125q-0.5625 -0.5625 -0.890625 -0.9375q-0.328125 -0.390625 -0.328125 -1.0625q0 -0.890625 0.53125 -1.390625q0.546875 -0.5 1.515625 -1.046875q1.078125 0.515625 1.328125 0.734375q0.25 0.203125 1.0 1.140625zm-19.5 -19.421875q-0.265625 1.21875 -0.265625 1.5q0 0.671875 -0.640625 1.421875q-0.625 0.734375 -1.40625 0.734375q-0.234375 0 -0.390625 -0.015625q-0.15625 -0.03125 -1.0625 -0.03125q-0.203125 -0.875 -0.265625 -0.875q-0.046875 -0.015625 -0.84375 -0.984375q0.515625 -0.828125 0.609375 -1.078125q0.09375 -0.25 0.34375 -0.546875q0.25 -0.3125 0.65625 -0.484375q0.40625 -0.1875 1.0625 -0.1875q0.609375 0 0.828125 0.171875q0.234375 0.15625 1.375 0.375zm25.21875 27.34375q-0.9375 0.1875 -0.65625 0.296875q0.28125 0.09375 0.15625 0.765625q-0.59375 0.8125 -0.96875 0.609375q-0.375 -0.203125 -0.421875 0.53125q-1.171875 -0.15625 -1.421875 -0.34375q-0.25 -0.1875 -1.21875 -0.46875l0 -1.34375q0 -0.734375 0.6875 -2.109375l1.203125 0q1.625 0 2.640625 2.0625zm-11.6875 -8.703125q0 0.234375 -0.03125 0.390625q-0.015625 0.15625 -0.015625 0.625q-0.484375 0.484375 -0.859375 0.859375q-0.375 0.375 -1.078125 0.375q-0.734375 0 -1.53125 -0.46875q-0.78125 -0.484375 -0.78125 -1.53125q0 -0.375 0.1875 -0.46875q0.203125 -0.09375 -0.375 -0.96875q1.75 -0.703125 2.4375 -0.703125q0.6875 0 1.609375 0.5625q0.25 0.4375 0.34375 0.71875q0.09375 0.265625 0.09375 0.609375zm-13.640625 -13.515625q-0.265625 1.1875 -0.71875 2.078125q-0.453125 0.875 -1.59375 0.875q-0.65625 0 -1.015625 -0.296875q-0.359375 -0.3125 -0.875 -0.828125l0 -0.859375q0.875 0.09375 0.328125 0.359375q-0.53125 0.265625 -0.53125 -0.734375q0 -1.0 0.734375 -1.484375q0.734375 -0.5 1.140625 0.03125l0.421875 -1.03125l2.109375 1.890625zm24.578125 26.953125q0 0.9375 -0.734375 1.515625q-0.71875 0.578125 -1.515625 0.578125q-0.40625 0 -1.640625 -0.4375q0.53125 -0.78125 0.109375 -0.734375q-0.421875 0.046875 -0.421875 -0.921875q0 -0.5 0.109375 -0.75q0.109375 -0.25 0.328125 -1.03125q0.75 -0.171875 0.984375 -0.265625q0.234375 -0.109375 0.6875 -0.109375q0.8125 0 1.453125 0.640625q0.640625 0.640625 0.640625 1.515625zm-15.46875 -13.03125l0 0.546875q-0.265625 0.625 -0.796875 1.140625q-0.53125 0.515625 -1.1875 0.515625q-0.609375 0 -0.984375 -0.25q-0.359375 -0.25 -0.734375 -0.640625q-0.1875 -0.4375 -0.34375 -0.75q-0.140625 -0.3125 -0.140625 -0.8125q0 -0.46875 0.328125 -1.1875q0.90625 -0.5625 2.109375 -0.75l0.390625 0.203125l1.3125 0q0 1.25 0.015625 1.46875q0.03125 0.203125 0.03125 0.515625zm-9.3125 -8.375q0 0.71875 -0.34375 1.1875q-0.34375 0.46875 -1.203125 1.328125q-0.84375 -0.359375 -1.0625 -0.40625q-0.21875 -0.0625 -0.796875 -0.265625q-0.46875 -0.5 -0.6875 -0.859375q-0.21875 -0.359375 -0.21875 -0.984375q0 -0.34375 0.375 -0.421875l-0.84375 -0.9375q1.421875 -0.578125 1.734375 -0.671875q0.328125 -0.09375 1.078125 -0.21875q0.6875 0.359375 1.328125 0.8125q0.640625 0.4375 0.640625 1.4375zm22.859375 25.515625q0 1.328125 -1.296875 2.03125q-0.453125 0.21875 -0.859375 0.21875q-0.953125 0 -1.421875 -0.5q-0.453125 -0.5 -1.0 -1.703125q0.671875 -1.453125 0.96875 -1.296875q0.3125 0.15625 0.109375 -1.0q1.828125 0.1875 2.09375 0.359375q0.265625 0.171875 1.109375 0.671875q0.296875 0.875 0.296875 1.21875zm-18.171875 -16.984375q0 0.734375 -0.671875 1.5q-0.671875 0.765625 -1.53125 0.765625q-0.765625 0 -1.140625 -0.40625q-0.359375 -0.40625 -0.8125 -0.875q0.53125 -0.453125 0.1875 -0.515625q-0.34375 -0.0625 -0.34375 -0.5625q0 -0.90625 0.734375 -1.390625q0.734375 -0.5 1.546875 -0.65625q0.453125 0.1875 0.828125 0.265625q0.390625 0.0625 1.140625 0.875q-0.15625 0.4375 -0.046875 0.59375q0.109375 0.140625 0.109375 0.40625zm-4.65625 -3.875q-0.375 1.125 -0.96875 1.765625q-0.578125 0.625 -1.640625 0.625l-1.15625 0q-0.34375 -0.875 -0.59375 -1.25q-0.234375 -0.390625 -0.234375 -0.953125q0 -0.234375 0.09375 -0.328125q0.109375 -0.09375 -0.046875 -0.546875q0.546875 -0.5625 0.921875 -0.890625q0.390625 -0.34375 1.125 -0.34375q0.375 0 0.625 0.109375q0.25 0.09375 -0.109375 0.890625q-0.125 -0.890625 0 -0.640625q0.140625 0.25 0.90625 -0.625l1.078125 2.1875zm18.1875 22.375q0 0.234375 -0.0625 0.6875q-0.0625 0.453125 -0.65625 0.453125l-0.1875 1.109375q-0.984375 0 -1.21875 -0.03125q-0.234375 -0.015625 -0.96875 -0.015625q-1.0 -1.25 -1.0 -2.203125q0 -0.453125 0.28125 -1.25q1.03125 -0.796875 1.828125 -0.796875q0.546875 0 0.984375 0.3125q0.453125 0.296875 1.0 0.859375l0 0.875zm-17.640625 -18.59375q-1.703125 0.515625 -1.171875 0.3125q0.53125 -0.203125 0.53125 0.5625q0 1.078125 -0.875 1.484375q-0.859375 0.40625 -1.703125 0.40625q-0.84375 -0.546875 -1.671875 -1.359375l0 -0.734375q0 -0.828125 0.40625 -1.3125q0.421875 -0.484375 1.203125 -1.265625q1.234375 0.453125 1.609375 0.734375q0.375 0.265625 1.671875 1.171875zm13.015625 19.546875q-0.28125 0.5 -0.421875 0.703125q-0.140625 0.203125 -0.421875 0.6875q-0.890625 0.265625 -1.265625 0.265625q-0.828125 0 -1.484375 -0.578125q-0.65625 -0.59375 -0.65625 -1.515625q0 -0.96875 0.703125 -1.578125q0.703125 -0.625 1.546875 -0.625q0.71875 0 0.984375 0.265625q0.265625 0.25 0.78125 0.53125q0.234375 1.140625 0.234375 1.84375zm-14.0625 -13.265625q-0.859375 0.40625 -0.96875 0.484375q-0.109375 0.0625 -0.578125 0.53125l-0.71875 0q-0.46875 0 -0.59375 -0.203125q-0.125 -0.203125 -0.78125 0.046875q-0.453125 -0.828125 -0.59375 -1.125q-0.125 -0.3125 -0.125 -0.8125q0 -0.578125 0.359375 -1.28125q0.453125 -0.453125 0.6875 -0.484375q0.25 -0.03125 0.578125 -0.53125q0.796875 0.15625 1.15625 0.203125q0.359375 0.046875 1.109375 0.578125q0.234375 0.78125 0.265625 1.140625q0.03125 0.34375 0.203125 1.453125zm0.046875 3.40625q0 1.015625 -1.125 2.140625q-0.578125 0 -0.796875 0.03125q-0.203125 0.03125 -0.484375 0.03125l-0.890625 0q-0.515625 -0.734375 -0.734375 -1.109375q-0.21875 -0.390625 -0.21875 -0.9375q0 -0.671875 0.1875 -0.9375q0.203125 -0.28125 0.4375 -0.921875q1.125 -0.296875 1.53125 -0.296875q0.609375 0 1.5 0.421875q0.59375 0.78125 0.59375 1.578125zm9.375 9.265625q0 0.765625 -0.3125 1.3125q-0.421875 1.0 -1.578125 1.0q-0.28125 0 -0.421875 -0.03125q-0.125 -0.03125 -0.546875 -0.03125q-0.765625 -0.625 -0.59375 -0.84375q0.1875 -0.234375 -1.296875 0.28125q0.5625 -2.046875 0.890625 -2.859375q0.328125 -0.828125 1.8125 -0.828125q0.65625 0 0.4375 0.875q-0.09375 -0.8125 0.640625 -0.8125q0.96875 0.96875 0.96875 1.9375zm-9.328125 -5.109375q0 0.328125 -0.03125 0.59375q-0.03125 0.25 -0.171875 1.046875q-0.703125 0.40625 -1.015625 0.59375q-0.296875 0.1875 -1.09375 0.1875q-0.53125 -0.21875 -0.671875 -0.296875q-0.140625 -0.078125 -0.875 -0.25q-0.328125 -1.09375 -0.328125 -1.453125q0 -0.90625 0.625 -1.578125q0.625 -0.671875 1.78125 -0.671875q0.453125 0.171875 1.109375 0.453125q0.671875 0.28125 0.671875 1.375zm4.28125 5.625l0 0.65625q-0.546875 0.671875 -1.0 1.03125q-0.453125 0.359375 -1.40625 0.359375q-0.65625 -0.3125 -1.28125 -0.625q-0.625 -0.3125 -0.625 -1.578125q0 -0.25 0.25 -0.328125q0.25 -0.078125 -0.1875 -0.3125q0.578125 -1.34375 1.984375 -1.34375q0.390625 0 0.703125 0.078125q0.328125 0.0625 1.03125 0.375q0.34375 0.640625 0.4375 0.96875q0.09375 0.3125 0.09375 0.71875zm-4.109375 -1.046875q-0.234375 0.59375 -0.28125 1.0q-0.046875 0.40625 -0.75 0.921875q-0.34375 0.15625 -0.671875 0.28125q-0.3125 0.109375 -0.71875 0.109375q-1.046875 0 -1.53125 -0.78125q-0.46875 -0.796875 -0.46875 -1.46875q0 -0.5625 0.203125 -0.921875q0.21875 -0.375 0.84375 -1.375q0.828125 0.609375 0.84375 0.4375q0.03125 -0.1875 0.46875 -0.1875q0.5 0 1.15625 0.359375q0.40625 0.515625 0.5 0.78125q0.09375 0.25 0.40625 0.84375zm57.574707 -35.3125q-1.171875 -0.125 -1.0625 0.265625q0.109375 0.390625 -0.953125 0.546875q-0.296875 0 -0.390625 -0.125q-0.09375 -0.140625 0 0.078125l-0.3125 0.0625q-1.328125 -0.140625 -1.578125 -0.828125q-0.25 -0.703125 -0.5625 -1.53125q0.421875 -0.953125 0.640625 -1.09375q0.21875 -0.15625 0.65625 -0.703125q0.59375 0 0.78125 -0.03125q0.1875 -0.03125 0.484375 -0.03125q0.390625 0 1.375 0.34375q0.328125 0.90625 0.453125 1.21875q0.125 0.3125 0.46875 1.828125zm-2.90625 3.09375q0 0.96875 -0.765625 1.53125q-0.765625 0.5625 -1.53125 0.5625q-0.421875 0 -0.8125 -0.140625q-0.390625 -0.15625 -1.0 -0.5q-0.3125 -0.765625 -0.359375 -1.046875q-0.03125 -0.28125 -0.03125 -0.46875q0 -0.421875 0.15625 -0.71875q0.078125 -0.1875 0.234375 -0.421875q0.265625 -0.390625 0.9375 -1.0625q1.21875 0 2.546875 0.328125q0.234375 0.65625 0.421875 0.875q0.203125 0.203125 0.203125 1.0625zm-2.796875 4.171875q-0.765625 1.421875 -0.890625 1.671875q-0.109375 0.25 -0.421875 0.65625q-0.875 0.703125 -1.578125 0.703125q-1.078125 0 -1.421875 -0.453125q-0.328125 -0.453125 -0.78125 -1.1875l0 -0.625q0 -1.109375 0.375 -1.125q0.390625 -0.015625 0.1875 -0.5q0.875 -0.515625 1.078125 -0.515625q0.203125 0 0.203125 0.046875l0.5625 -0.328125q0.65625 0.453125 0.921875 0.609375q0.265625 0.140625 0.46875 0.4375q0.78125 0.828125 0.171875 0.953125q-0.59375 0.125 1.125 -0.34375zm-3.921875 5.40625q0 0.609375 -0.203125 1.03125q-0.203125 0.421875 -0.9375 1.109375l-0.90625 0q-0.734375 0 -1.078125 -0.21875q-0.328125 -0.21875 -0.96875 -0.671875q-0.15625 -0.515625 -0.234375 -0.765625q-0.078125 -0.265625 -0.078125 -0.640625q0 -0.671875 0.21875 -0.9375q0.234375 -0.265625 0.609375 -0.953125q0.6875 0 0.859375 -0.046875q0.1875 -0.0625 0.578125 -0.0625q0.8125 0 1.46875 0.671875q0.671875 0.65625 0.671875 1.484375zm-15.515625 -13.796875q0 0.34375 -0.078125 0.578125q-0.078125 0.234375 -0.28125 0.90625q-0.828125 0.28125 -1.171875 0.390625q-0.34375 0.109375 -0.828125 0.109375l-1.03125 0q-0.59375 -0.59375 -0.703125 -0.765625q-0.09375 -0.1875 -0.515625 -0.609375q0.125 -1.125 0.28125 -1.46875q0.15625 -0.359375 0.765625 -1.34375q0.671875 0 0.828125 -0.03125q0.15625 -0.03125 0.421875 -0.03125q0.859375 0 1.578125 0.6875q0.734375 0.671875 0.734375 1.578125zm3.375 4.46875q-0.484375 1.0 -0.734375 1.734375q-0.25 0.734375 -1.609375 0.734375q-1.0625 0 -1.71875 -0.703125q-0.640625 -0.703125 -0.640625 -1.703125q0 -0.75 0.65625 -1.453125q0.375 -0.171875 0.53125 -0.25q0.15625 -0.078125 0.828125 -0.59375q1.09375 0.546875 0.96875 0.90625q-0.109375 0.34375 0.40625 -0.25l1.3125 1.578125zm3.203125 3.53125q-0.375 1.625 -0.453125 1.828125q-0.0625 0.203125 -0.734375 0.109375q-0.109375 -0.09375 0.234375 -0.25q0.359375 -0.15625 1.046875 1.046875q-1.984375 0.84375 -2.734375 0.84375q-0.53125 0 -0.828125 -0.125q-0.296875 -0.125 -1.421875 -0.296875l0 -1.375q0 -0.234375 0.015625 -0.40625q0.03125 -0.1875 0.03125 -0.65625q0.546875 -0.671875 0.765625 -0.609375q0.234375 0.0625 -0.140625 -1.546875q2.078125 0.796875 2.40625 0.953125q0.34375 0.15625 1.0 0.8125q-0.703125 0.5625 0.8125 -0.328125zm2.53125 6.15625q0 0.90625 -0.703125 1.5625q-0.6875 0.640625 -1.546875 0.640625q-0.53125 0 -0.640625 -0.28125q-0.09375 -0.296875 -0.578125 0.078125q-0.71875 -0.78125 -0.609375 -1.03125q0.125 -0.265625 -0.75 -0.484375q0.46875 -1.265625 0.71875 -1.703125q0.25 -0.4375 1.265625 -0.875q0.90625 0 1.875 0.390625q0.96875 0.375 0.96875 1.703125zm3.390625 4.265625q0 0.75 -0.6875 1.640625q-0.453125 0.25 -0.8125 0.40625q-0.359375 0.15625 -0.859375 0.15625q-0.90625 0 -1.4375 -0.703125q-0.53125 -0.703125 -0.90625 -1.75q0.515625 -0.65625 0.6875 -1.0q0.171875 -0.359375 1.015625 -1.15625q0.65625 0.15625 0.84375 0.15625q0.953125 0 1.546875 0.75q0.609375 0.75 0.609375 1.5zm3.234375 4.375q0 0.53125 -0.15625 0.84375q-0.15625 0.296875 -0.390625 0.9375q-1.1875 0.484375 -1.65625 0.484375q-0.609375 0 -1.078125 -0.265625q-0.46875 -0.28125 -1.078125 -0.9375l0 -0.6875q0.1875 0 0.015625 -0.125q-0.15625 -0.125 -0.46875 -1.421875q1.203125 -0.515625 1.609375 -0.71875q0.421875 -0.203125 1.09375 -0.203125q0.71875 0 1.015625 0.296875q0.296875 0.28125 0.71875 0.53125q0.375 0.75 0.375 1.265625zm3.375 5.25q-0.46875 1.0 -0.96875 1.375q-0.484375 0.375 -1.4375 0.375q-1.125 0 -1.140625 -0.390625q-0.015625 -0.390625 -0.796875 -0.5625q0 -0.625 -0.46875 -1.359375q0.515625 -0.8125 0.671875 -1.09375q0.15625 -0.28125 0.78125 -0.953125l0.53125 0q0.3125 -0.09375 0.625 -0.09375q0.6875 0 1.0 0.28125q0.3125 0.265625 0.953125 0.71875q-0.484375 0.578125 -0.125 0.625q0.375 0.03125 0.375 1.078125zm3.328125 4.1875q0 0.75 -0.53125 1.5q-0.515625 0.75 -1.5625 0.75q-0.578125 0 -1.140625 -0.34375q-0.546875 -0.359375 -1.109375 -0.9375q0 -0.53125 -0.03125 -0.6875q-0.015625 -0.15625 -0.015625 -0.390625l0 -0.765625q1.171875 -1.171875 2.25 -1.171875q0.1875 0 0.34375 0.03125q0.15625 0.015625 0.625 0.015625q0.515625 0.515625 0.6875 0.71875q0.1875 0.203125 0.484375 0.703125l0 0.578125zm3.515625 4.828125q-0.3125 0.53125 -0.34375 0.8125q-0.03125 0.28125 -0.90625 1.140625q-0.546875 0 -0.734375 0.046875q-0.171875 0.0625 -0.890625 0.0625q-0.734375 -0.390625 -1.25 -0.78125q-0.515625 -0.40625 -0.515625 -1.484375q0 -0.71875 0.65625 -1.609375l1.859375 -0.84375q1.421875 0.9375 2.125 2.65625zm-16.46875 -13.71875q-0.828125 0.03125 -0.578125 0.140625q0.25 0.109375 0 0.71875q-0.921875 0.640625 -1.625 0.640625q-1.296875 0 -2.421875 -1.328125l0 -0.875q0 -0.234375 -0.28125 -1.484375q1.234375 0.171875 1.234375 -0.265625q0 -0.453125 1.3125 -0.453125q1.015625 0 2.140625 1.125l-0.234375 0.453125q0.1875 -0.15625 0.3125 0.046875q0.140625 0.1875 0.140625 1.28125zm-3.34375 5.03125q-0.828125 0.578125 -1.34375 0.875q-0.5 0.28125 -1.21875 0.28125q-0.3125 0 -0.578125 -0.078125q-0.25 -0.078125 -0.734375 -0.265625q-0.578125 -0.75 0.34375 -1.265625q-0.046875 0.4375 -0.140625 0.6875q-0.09375 0.25 -2.4375 0.25q1.609375 -2.109375 1.765625 -2.078125q0.171875 0.03125 0.109375 0.109375q-0.046875 0.0625 -0.15625 -0.03125q-0.109375 -0.09375 0.1875 -1.109375q0.6875 -0.234375 0.953125 -0.421875q0.265625 -0.203125 1.21875 -0.3125q0.828125 0.25 1.125 0.59375q0.296875 0.34375 0.859375 0.90625l0 0.65625q0 0.078125 0.015625 0.234375q0.03125 0.15625 0.03125 0.96875zm-3.484375 3.390625q0 1.0 -0.515625 0.765625q-0.5 -0.25 0.5625 0.125q-1.265625 1.265625 -2.28125 1.375q-0.65625 -0.171875 -1.09375 -0.3125q-0.421875 -0.15625 -1.234375 -0.984375l0 -0.8125q0 -2.3125 2.3125 -2.3125q0.4375 0 1.484375 0.359375q-0.234375 0.671875 0.265625 0.59375q0.5 -0.09375 0.5 1.203125zm-3.234375 5.625q-0.65625 0.703125 -1.03125 1.25q-0.375 0.53125 -1.375 0.53125q-0.5 0 -0.6875 -0.078125q-0.171875 -0.078125 -0.984375 -0.078125q-0.328125 -0.9375 -0.515625 -1.28125q-0.171875 -0.34375 -0.171875 -0.875q0 -0.40625 0.21875 -0.515625q0.234375 -0.109375 -0.5 -1.1875q1.34375 -0.234375 1.59375 -0.359375q0.265625 -0.140625 0.78125 -0.140625q0.59375 0 0.921875 0.21875q0.34375 0.21875 0.953125 0.46875q0.234375 0.65625 0.34375 0.859375q0.109375 0.203125 0.453125 1.1875z" fill-rule="nonzero"/></g></svg>